<?xml version="1.0" encoding="UTF-8" standalone="no"?>
<!-- Uploaded to: SVG Repo, www.svgrepo.com, Transformed by: SVG Repo Mixer Tools -->

<svg
   fill="#000000"
   height="200"
   width="200"
   version="1.1"
   id="Layer_1"
   viewBox="0 0 128 128"
   xml:space="preserve"
   sodipodi:docname="AI_icon_grey.svg"
   inkscape:version="1.2.2 (732a01da63, 2022-12-09)"
   xmlns:inkscape="http://www.inkscape.org/namespaces/inkscape"
   xmlns:sodipodi="http://sodipodi.sourceforge.net/DTD/sodipodi-0.dtd"
   xmlns="http://www.w3.org/2000/svg"
   xmlns:svg="http://www.w3.org/2000/svg"><defs
   id="defs14" /><sodipodi:namedview
   id="namedview12"
   pagecolor="#ffffff"
   bordercolor="#000000"
   borderopacity="0.25"
   inkscape:showpageshadow="2"
   inkscape:pageopacity="0.0"
   inkscape:pagecheckerboard="0"
   inkscape:deskcolor="#d1d1d1"
   showgrid="false"
   inkscape:zoom="1.04625"
   inkscape:cx="275.74671"
   inkscape:cy="305.85424"
   inkscape:window-width="1920"
   inkscape:window-height="1017"
   inkscape:window-x="-8"
   inkscape:window-y="-8"
   inkscape:window-maximized="1"
   inkscape:current-layer="Layer_1" />

<g
   id="SVGRepo_bgCarrier"
   stroke-width="0" />

<g
   id="SVGRepo_tracerCarrier"
   stroke-linecap="round"
   stroke-linejoin="round" />

<g
   id="SVGRepo_iconCarrier"
   transform="matrix(0.23178016,0,0,0.23178016,4.664279,4.664279)"
   style="fill:#999999"> <g
   id="g8"
   style="fill:#999999"> <g
   id="g6"
   style="fill:#999999"> <path
   d="m 498.095,198.122 c 0,-25.763 -9.68,-50.313 -27.257,-69.131 -13.197,-14.129 -29.915,-24.039 -48.274,-28.848 0.253,-2.749 0.397,-5.521 0.397,-8.313 C 422.962,41.194 381.768,0 331.133,0 300.099,0 272.631,15.49 256,39.129 239.369,15.49 211.901,0 180.867,0 130.232,0 89.039,41.194 89.039,91.828 c 0,2.794 0.145,5.565 0.397,8.313 -18.359,4.808 -35.075,14.719 -48.274,28.848 -17.578,18.819 -27.257,43.37 -27.257,69.132 0,21.486 6.731,41.427 18.185,57.837 -11.804,16.895 -18.185,37.001 -18.185,57.919 0,46.95 32.11,86.538 75.522,97.967 -0.249,2.761 -0.39,5.537 -0.39,8.327 0,50.635 41.194,91.828 91.828,91.828 31.035,0 58.503,-15.49 75.133,-39.129 16.633,23.64 44.101,39.13 75.135,39.13 50.635,0 91.828,-41.194 91.828,-91.828 0,-2.788 -0.14,-5.565 -0.39,-8.327 43.412,-11.429 75.522,-51.016 75.522,-97.967 0,-20.919 -6.382,-41.025 -18.185,-57.919 11.457,-16.41 18.187,-36.351 18.187,-57.837 z M 239.304,343.088 v 77.084 c 0,32.221 -26.216,58.437 -58.437,58.437 -32.223,0 -58.437,-26.216 -58.437,-58.437 0,-1.771 0.088,-3.532 0.245,-5.284 25.807,-1.92 50.123,-13.714 67.616,-33.029 l -24.749,-22.417 c -12.857,14.195 -31.206,22.337 -50.343,22.337 -37.442,0 -67.902,-30.461 -67.902,-67.901 0,-11.892 3.075,-23.392 8.834,-33.519 16.639,11.985 37.042,19.055 59.068,19.055 v -33.391 c -37.442,0 -67.902,-30.461 -67.902,-67.901 0,-31.399 21.722,-58.325 51.228,-65.815 10.151,20.567 27.843,37.177 50.093,45.523 l 11.728,-31.264 c -22.678,-8.507 -37.916,-30.504 -37.916,-54.737 0,-32.223 26.216,-58.437 58.437,-58.437 32.221,0 58.437,26.216 58.437,58.437 v 77.084 23.211 h -13.79 v -23.211 h -33.391 v 23.211 h -23.211 v 33.391 h 23.211 v 13.79 h -23.211 v 33.391 h 23.211 v 13.789 h -23.211 v 33.391 h 23.211 v 23.211 h 33.391 v -23.211 h 13.79 z m -13.788,-56.603 v -60.969 h 60.969 v 60.969 z m 230.353,-6.126 c 5.759,10.128 8.834,21.628 8.834,33.519 0,37.442 -30.461,67.901 -67.902,67.901 -19.137,0 -37.486,-8.141 -50.343,-22.337 L 321.71,381.86 c 17.494,19.314 41.809,31.107 67.616,33.029 0.157,1.751 0.245,3.513 0.245,5.284 0,32.223 -26.216,58.437 -58.437,58.437 -32.221,0 -58.438,-26.214 -58.438,-58.437 v -77.084 -23.211 h 13.789 v 23.211 h 33.391 v -23.211 h 23.211 v -33.391 h -23.211 v -13.789 h 23.211 v -33.391 h -23.211 v -13.79 h 23.211 v -33.391 h -23.211 v -23.211 h -33.391 v 23.211 H 272.696 V 168.915 91.828 c 0,-32.223 26.216,-58.437 58.437,-58.437 32.221,0 58.437,26.214 58.437,58.437 0,24.232 -15.238,46.229 -37.916,54.737 l 11.728,31.264 c 22.251,-8.347 39.942,-24.957 50.094,-45.523 29.506,7.491 51.228,34.416 51.228,65.815 0,37.441 -30.461,67.901 -67.902,67.901 v 33.391 c 22.025,10e-4 42.428,-7.07 59.067,-19.054 z"
   id="path4"
   style="fill:#999999" /> </g> </g> </g>

</svg>
