<?xml version="1.0" encoding="UTF-8" standalone="no"?>
<!-- Uploaded to: SVG Repo, www.svgrepo.com, Generator: SVG Repo Mixer Tools -->

<svg
   width="16"
   height="16"
   viewBox="0 0 0.48 0.48"
   fill="none"
   version="1.1"
   id="svg4"
   sodipodi:docname="data_management_2_left_icon.svg"
   inkscape:version="1.2.2 (732a01da63, 2022-12-09)"
   xmlns:inkscape="http://www.inkscape.org/namespaces/inkscape"
   xmlns:sodipodi="http://sodipodi.sourceforge.net/DTD/sodipodi-0.dtd"
   xmlns="http://www.w3.org/2000/svg"
   xmlns:svg="http://www.w3.org/2000/svg">
  <defs
     id="defs8" />
  <sodipodi:namedview
     id="namedview6"
     pagecolor="#ffffff"
     bordercolor="#000000"
     borderopacity="0.25"
     inkscape:showpageshadow="2"
     inkscape:pageopacity="0.0"
     inkscape:pagecheckerboard="0"
     inkscape:deskcolor="#d1d1d1"
     showgrid="false"
     inkscape:zoom="23.673935"
     inkscape:cx="14.678591"
     inkscape:cy="9.0394774"
     inkscape:window-width="1920"
     inkscape:window-height="1017"
     inkscape:window-x="-8"
     inkscape:window-y="-8"
     inkscape:window-maximized="1"
     inkscape:current-layer="svg4" />
  <path
     d="m 0.39728572,0.4422245 c 0,-0.007573 -4.089e-4,-0.0150703 -0.001206,-0.0224695 M 0.08271428,0.0377755 c 0,0.0075728 4.0826e-4,0.01507048 0.001206,0.02246935 m -0.001206,0.38197965 c 0,-0.0930998 0.0617169,-0.17491972 0.15123469,-0.20049438 l 0.0121018,-0.00346 c 0.0895181,-0.0255747 0.1512347,-0.10739487 0.1512347,-0.20049436 M 0.30740794,0.06024511 H 0.08392093 m 0.16731382,0.0898772 H 0.11556586 m 0.0570257,0.2696327 H 0.39607913 M 0.22876531,0.32987746 h 0.13566795 m 0.0316459,0.0898775 c -0.003515,-0.0325603 -0.0145803,-0.0632064 -0.0316459,-0.0898775 m 0,0 c -0.026732,-0.0417818 -0.0681856,-0.0738074 -0.11838232,-0.0881474 l -0.0121018,-0.00346 C 0.18375324,0.22392985 0.14229952,0.19190424 0.11556586,0.1501224 M 0.08392096,0.0602449 c 0.003514,0.0325602 0.0145801,0.0632066 0.0316447,0.0898775"
     stroke="#000000"
     stroke-width="0.0449387"
     stroke-linecap="round"
     stroke-linejoin="round"
     id="path2" />
</svg>
