<?xml version="1.0" encoding="UTF-8" standalone="no"?>
<!-- Uploaded to: SVG Repo, www.svgrepo.com, Generator: SVG Repo Mixer Tools -->

<svg
   width="400"
   height="400"
   viewBox="0 0 12 12"
   fill="none"
   version="1.1"
   id="svg4"
   sodipodi:docname="data_management_2.svg"
   inkscape:version="1.2.2 (732a01da63, 2022-12-09)"
   xmlns:inkscape="http://www.inkscape.org/namespaces/inkscape"
   xmlns:sodipodi="http://sodipodi.sourceforge.net/DTD/sodipodi-0.dtd"
   xmlns="http://www.w3.org/2000/svg"
   xmlns:svg="http://www.w3.org/2000/svg">
  <defs
     id="defs8" />
  <sodipodi:namedview
     id="namedview6"
     pagecolor="#ffffff"
     bordercolor="#000000"
     borderopacity="0.25"
     inkscape:showpageshadow="2"
     inkscape:pageopacity="0.0"
     inkscape:pagecheckerboard="0"
     inkscape:deskcolor="#d1d1d1"
     showgrid="false"
     inkscape:zoom="1.04625"
     inkscape:cx="238.47073"
     inkscape:cy="203.58423"
     inkscape:window-width="1920"
     inkscape:window-height="1017"
     inkscape:window-x="-8"
     inkscape:window-y="-8"
     inkscape:window-maximized="1"
     inkscape:current-layer="svg4" />
  <path
     d="m 9.8888887,11 c 0,-0.187223 -0.01011,-0.372612 -0.02983,-0.555556 M 2.1111113,0.9999998 c 0,0.1872277 0.010094,0.3726166 0.029833,0.5555555 M 2.1111113,11 c 0,-2.3018888 1.52595,-4.3248891 3.7392777,-4.9572225 L 6.1496113,5.957222 C 8.3629447,5.3248886 9.8888887,3.3018831 9.8888887,0.9999998 M 7.6666667,1.5555553 H 2.1409446 M 6.2777779,3.7777775 H 2.9233668 M 4.3333335,10.444444 H 9.8590557 M 5.7222224,8.222222 h 3.3543893 m 0.782444,2.222222 C 9.7721667,9.6393882 9.4985557,8.8816662 9.0766117,8.222222 m 0,0 C 8.4156667,7.1891664 7.3907224,6.3973331 6.1496113,6.0427775 L 5.850389,5.957222 C 4.6093001,5.6026664 3.5843557,4.8108331 2.9233668,3.7777775 M 2.1409446,1.5555553 c 0.086867,0.80505 0.3604944,1.5627833 0.7824222,2.2222222"
     stroke="#000000"
     stroke-width="1.11111"
     stroke-linecap="round"
     stroke-linejoin="round"
     id="path2" />
</svg>
