<?xml version="1.0" encoding="UTF-8" standalone="no"?>
<!-- Uploaded to: SVG Repo, www.svgrepo.com, Generator: SVG Repo Mixer Tools -->

<svg
   width="16"
   height="16"
   viewBox="0 0 0.48 0.48"
   fill="none"
   version="1.1"
   id="svg116"
   sodipodi:docname="data_management_white.svg"
   inkscape:version="1.2.2 (732a01da63, 2022-12-09)"
   xmlns:inkscape="http://www.inkscape.org/namespaces/inkscape"
   xmlns:sodipodi="http://sodipodi.sourceforge.net/DTD/sodipodi-0.dtd"
   xmlns="http://www.w3.org/2000/svg"
   xmlns:svg="http://www.w3.org/2000/svg">
  <defs
     id="defs120" />
  <sodipodi:namedview
     id="namedview118"
     pagecolor="#ffffff"
     bordercolor="#000000"
     borderopacity="0.25"
     inkscape:showpageshadow="2"
     inkscape:pageopacity="0.0"
     inkscape:pagecheckerboard="0"
     inkscape:deskcolor="#d1d1d1"
     showgrid="false"
     inkscape:zoom="23.673935"
     inkscape:cx="5.6813538"
     inkscape:cy="9.5886045"
     inkscape:window-width="1920"
     inkscape:window-height="1017"
     inkscape:window-x="-8"
     inkscape:window-y="-8"
     inkscape:window-maximized="1"
     inkscape:current-layer="svg116" />
  <path
     d="m 0.16881237,0.26413957 c 0,0.0524199 0.0424965,0.0949167 0.0949167,0.0949167 0.0262113,0 0.0499406,-0.0106236 0.0671156,-0.0278014 M 0.16881237,0.26413957 H 0.07389559 m 0.09491678,0 c 0,-0.0368276 0.0209739,-0.0687553 0.0516277,-0.084493 m -0.14654445,0.084493 c 0,0.0131057 -0.01062413,0.0237292 -0.02372924,0.0237292 -0.01310511,0 -0.02372924,-0.0106236 -0.02372924,-0.0237292 0,-0.0131057 0.01062413,-0.0237292 0.02372924,-0.0237292 0.01310511,0 0.02372924,0.0106236 0.02372924,0.0237292 z M 0.41305446,0.11481442 c -0.004298,-0.004292 -0.00695,-0.0102263 -0.00695,-0.01677945 0,-0.01310511 0.0106236,-0.02372924 0.0237292,-0.02372924 0.0131057,0 0.0237292,0.01062413 0.0237292,0.02372924 0,0.01310511 -0.0106236,0.02372924 -0.0237292,0.02372924 -0.006551,0 -0.012484,-0.002654 -0.0167792,-0.00695 z m 0,0 -0.0822097,0.0822095 M 0.17762749,0.07261466 c 0.008741,-0.003501 0.0149139,-0.01204753 0.0149139,-0.02203766 0,-0.01310511 -0.0106241,-0.02372924 -0.0237292,-0.02372924 -0.0131051,0 -0.0237292,0.01062413 -0.0237292,0.02372924 0,0.01310511 0.0106241,0.02372924 0.0237292,0.02372924 0.003114,0 0.00609,-6.0033e-4 0.008815,-0.0016888 z m 0,0 0.0428124,0.10703191 m 0.1104048,0.15160864 c 0.0171778,-0.017175 0.0278014,-0.0409042 0.0278014,-0.0671156 0,-0.0262113 -0.0106236,-0.0499406 -0.0278014,-0.0671156 m 0,0.13423127 0.0822097,0.0822097 m 0,0 c -0.004298,0.004298 -0.00695,0.0102275 -0.00695,0.0167789 0,0.0131057 0.0106236,0.0237292 0.0237292,0.0237292 0.0131057,0 0.0237292,-0.0106236 0.0237292,-0.0237292 0,-0.0131057 -0.0106236,-0.0237292 -0.0237292,-0.0237292 -0.006551,0 -0.012484,0.002654 -0.0167792,0.00695 z m -0.0822097,-0.216441 c -0.017175,-0.0171773 -0.0409042,-0.0278014 -0.0671156,-0.0278014 -0.0155951,0 -0.0303093,0.003759 -0.0432893,0.0104238"
     stroke="#000000"
     stroke-width="0.0474584"
     stroke-linecap="round"
     stroke-linejoin="round"
     id="path114"
     style="fill:#ffffff;stroke:#000000;stroke-opacity:0.01023891" />
  <path
     style="fill:#ffffff;stroke-width:0.0422405"
     d="m 13.936397,15.848491 c -0.455556,-0.129161 -0.888779,-0.517982 -1.058689,-0.950181 -0.07473,-0.1901 -0.09409,-0.322092 -0.09189,-0.626509 l 0.0028,-0.38567 -0.898638,-0.897908 -0.898637,-0.897909 -0.437359,0.215533 C 9.8890501,12.633522 9.5336601,12.713865 8.7649126,12.710299 8.2025747,12.707693 8.0885421,12.694477 7.7511394,12.592821 6.4038256,12.186888 5.3973165,11.192483 5.0203251,9.8948485 l -0.095105,-0.3273643 -0.9525102,0.00258 -0.9525103,0.00258 -0.128263,0.176941 C 2.5846427,10.173505 1.9649229,10.427136 1.4513632,10.339166 1.3036928,10.313871 1.0925517,10.249509 0.9821608,10.19614 0.70872063,10.063942 0.39835478,9.7429625 0.26139172,9.4507225 0.16306792,9.2409276 0.14784192,9.1545119 0.14784192,8.8062661 c 0,-0.3692944 0.0113502,-0.4252289 0.13883402,-0.6841854 C 0.44834421,7.7936858 0.71351915,7.5372594 1.0560137,7.3781245 1.249084,7.2884174 1.3527185,7.2697733 1.6693899,7.267777 c 0.347813,-0.00219 0.4056075,0.00969 0.6625354,0.1361704 0.257948,0.1269878 0.6671536,0.498196 0.6671536,0.6052049 0,0.020975 0.4259282,0.037526 0.9609725,0.037342 L 4.9210239,8.0461558 5.0612393,7.6057601 C 5.2543411,6.9992555 5.5483911,6.5158779 6.008718,6.0482332 6.2120007,5.8417192 6.3783228,5.6605803 6.3783228,5.6457028 c 0,-0.014878 -0.2138427,-0.5632866 -0.4752061,-1.2186868 L 5.4279105,3.2353867 5.227316,3.1869522 C 4.8266674,3.0902138 4.4411848,2.7709649 4.2341484,2.3644317 3.8639522,1.6375201 4.160441,0.7143417 4.8887652,0.32614902 5.6823692,-0.09683761 6.6618296,0.23144333 7.0383665,1.0466206 7.1439932,1.2752952 7.159773,1.3595271 7.159773,1.6946894 c 0,0.3604346 -0.00995,0.4046314 -0.1546177,0.6865926 L 6.8505371,2.6826422 7.3099166,3.8285109 c 0.2526585,0.6302278 0.4647985,1.1509917 0.4714218,1.157253 0.00662,0.00626 0.1546047,-0.016773 0.3288469,-0.051188 0.2230305,-0.044051 0.4730937,-0.05638 0.844811,-0.041653 0.6357105,0.025186 1.0949677,0.146364 1.6592407,0.4377997 l 0.376111,0.1942537 0.907222,-0.9039038 0.907223,-0.9039038 -0.02649,-0.2456806 c -0.07313,-0.6783305 0.298654,-1.3273779 0.928753,-1.6213725 0.219992,-0.1026447 0.303621,-0.1180233 0.633608,-0.116515 0.330682,0.00151 0.413034,0.017624 0.632687,0.123789 0.320592,0.1549512 0.605083,0.4387959 0.763802,0.7620639 0.111462,0.2270204 0.124016,0.2939742 0.122654,0.6541894 -0.0013,0.3507877 -0.0163,0.4317857 -0.118989,0.6436612 -0.155479,0.3207944 -0.449979,0.6079634 -0.787545,0.7679415 -0.251405,0.1191449 -0.309202,0.1297604 -0.681972,0.1252559 l -0.407288,-0.00492 -0.897901,0.8986301 -0.897901,0.8986305 0.194253,0.3761111 c 0.10684,0.2068613 0.246007,0.546014 0.309261,0.7536728 0.103846,0.3409218 0.115286,0.4431473 0.117885,1.05341 0.0034,0.8044987 -0.06214,1.0943196 -0.40474,1.789057 l -0.215678,0.43736 0.903413,0.90491 0.903413,0.90491 0.274564,-0.02575 c 0.902578,-0.08466 1.669675,0.565506 1.722194,1.459666 0.01437,0.244714 -6.29e-4,0.371284 -0.06593,0.556217 -0.166671,0.472036 -0.513785,0.83702 -0.938179,0.986479 -0.262818,0.09256 -0.698948,0.115765 -0.932276,0.04961 z m 0.44651,-1.507825 c 0.01436,-0.02323 0.006,-0.04224 -0.01863,-0.04224 -0.0246,0 -0.04473,0.01901 -0.04473,0.04224 0,0.02323 0.0084,0.04224 0.01863,0.04224 0.01025,0 0.03038,-0.01901 0.04473,-0.04224 z M 9.4618829,11.103158 c 0.8236291,-0.229544 1.4877381,-0.950147 1.6683161,-1.8102373 0.07828,-0.3728252 0.07828,-0.5987074 0,-0.9715326 C 10.948016,7.453657 10.30071,6.7560336 9.4407626,6.5006257 9.100395,6.3995352 8.4711139,6.3995246 8.1331097,6.5006042 7.1934395,6.7816102 6.5446091,7.5458377 6.4229225,8.5149558 6.2093378,10.215953 7.7961459,11.567395 9.4618829,11.103158 Z M 1.6896219,8.8071544 c 0,-0.023232 -0.019008,-0.042241 -0.04224,-0.042241 -0.023232,0 -0.042241,0.019008 -0.042241,0.042241 0,0.023232 0.019008,0.042241 0.042241,0.042241 0.023232,0 0.04224,-0.019008 0.04224,-0.042241 z M 5.6602335,1.6685017 c 0,-0.023232 -0.00838,-0.042241 -0.018627,-0.042241 -0.010245,0 -0.030375,0.019008 -0.044734,0.042241 -0.014358,0.023232 -0.00598,0.042241 0.018627,0.042241 0.024604,0 0.044734,-0.019008 0.044734,-0.042241 z"
     id="path258"
     transform="scale(0.03)" />
</svg>
