<?xml version="1.0" encoding="UTF-8" standalone="no"?>
<!-- Uploaded to: SVG Repo, www.svgrepo.com, Generator: SVG Repo Mixer Tools -->

<svg
   width="16"
   height="16"
   viewBox="0 0 0.48 0.48"
   fill="none"
   version="1.1"
   id="svg4"
   sodipodi:docname="data_management_2_icon_left.svg"
   inkscape:version="1.2.2 (732a01da63, 2022-12-09)"
   xmlns:inkscape="http://www.inkscape.org/namespaces/inkscape"
   xmlns:sodipodi="http://sodipodi.sourceforge.net/DTD/sodipodi-0.dtd"
   xmlns="http://www.w3.org/2000/svg"
   xmlns:svg="http://www.w3.org/2000/svg">
  <defs
     id="defs8" />
  <sodipodi:namedview
     id="namedview6"
     pagecolor="#ffffff"
     bordercolor="#000000"
     borderopacity="0.25"
     inkscape:showpageshadow="2"
     inkscape:pageopacity="0.0"
     inkscape:pagecheckerboard="0"
     inkscape:deskcolor="#d1d1d1"
     showgrid="false"
     inkscape:zoom="23.673935"
     inkscape:cx="14.044982"
     inkscape:cy="9.0605977"
     inkscape:window-width="1728"
     inkscape:window-height="1016"
     inkscape:window-x="-8"
     inkscape:window-y="-8"
     inkscape:window-maximized="1"
     inkscape:current-layer="svg4" />
  <path
     d="m 0.39728572,0.4422245 c 0,-0.007573 -4.089e-4,-0.0150703 -0.001206,-0.0224695 M 0.08271428,0.0377755 c 0,0.0075728 4.0826e-4,0.01507048 0.001206,0.02246935 m -0.001206,0.38197965 c 0,-0.0930998 0.0617169,-0.17491972 0.15123469,-0.20049438 l 0.0121018,-0.00346 c 0.0895181,-0.0255747 0.1512347,-0.10739487 0.1512347,-0.20049436 M 0.30740794,0.06024511 H 0.08392093 m 0.16731382,0.0898772 H 0.11556586 m 0.0570257,0.2696327 H 0.39607913 M 0.22876531,0.32987746 h 0.13566795 m 0.0316459,0.0898775 c -0.003515,-0.0325603 -0.0145803,-0.0632064 -0.0316459,-0.0898775 m 0,0 c -0.026732,-0.0417818 -0.0681856,-0.0738074 -0.11838232,-0.0881474 l -0.0121018,-0.00346 C 0.18375324,0.22392985 0.14229952,0.19190424 0.11556586,0.1501224 M 0.08392096,0.0602449 c 0.003514,0.0325602 0.0145801,0.0632066 0.0316447,0.0898775"
     stroke="#000000"
     stroke-width="0.0449387"
     stroke-linecap="round"
     stroke-linejoin="round"
     id="path2" />
  <path
     style="fill:#ffffff;stroke-width:0.0422405;stroke:none"
     d="M 2.5210766,15.419963 C 2.0688109,15.258664 1.967404,14.930896 2.0722922,13.969397 2.2980352,11.900035 3.3028023,10.053695 4.9041627,8.7656078 5.1306469,8.5834307 5.4687745,8.3424251 5.6555573,8.2300403 5.8423402,8.1176556 5.9958365,8.0139533 5.9966602,7.9995911 5.9974839,7.9852293 5.8771833,7.9027297 5.7293254,7.8162591 5.5814675,7.7297889 5.3169644,7.5514569 5.1415407,7.4199667 3.4278485,6.1354536 2.3536284,4.283797 2.0908802,2.1614762 1.9863098,1.3168203 2.0172825,1.0057988 2.2297999,0.76647028 2.327417,0.65653793 2.6118153,0.53007344 2.7639797,0.52893454 c 0.3072524,-0.0023 0.6302565,0.2782622 0.6971785,0.60557036 l 0.027134,0.1327116 3.504242,0.02112 c 2.659119,0.016027 3.5260648,0.033625 3.5947268,0.072969 0.143471,0.08221 0.304199,0.29648 0.358602,0.478062 0.06207,0.2071575 0.0027,0.4384923 -0.163116,0.6355446 -0.218053,0.2591412 -0.07482,0.2496033 -3.7483393,0.2496033 -2.4574208,0 -3.3594804,0.012741 -3.3594804,0.047451 0,0.1075798 0.3014873,0.9377148 0.4416142,1.2159696 L 4.2673571,4.2874158 H 6.40415 c 2.4023197,0 2.3242465,-0.00956 2.559531,0.3133864 C 9.0764767,4.7556227 9.087662,4.799182 9.0734895,5.0284223 9.0546738,5.3327696 8.9426084,5.5161358 8.6996784,5.6400696 8.5454645,5.7187438 8.4444825,5.723705 6.9608132,5.7254985 l -1.5751433,0.00191 0.2534433,0.2343383 c 0.4877365,0.4509653 1.3772548,0.961436 2.0874109,1.1979045 l 0.2710673,0.09026 0.3809621,-0.1330316 C 9.2565511,6.8102852 9.9876146,6.3436294 10.689495,5.6417495 11.816341,4.5149032 12.392729,3.216724 12.499903,1.5642289 c 0.03068,-0.4730463 0.04646,-0.5476909 0.148331,-0.70162784 0.124271,-0.18778532 0.383116,-0.33273841 0.594178,-0.33273841 0.176768,0 0.453878,0.13436227 0.562864,0.27291588 C 13.96744,1.0089362 13.995685,1.21314 13.944362,1.8083302 13.779046,3.725501 13.00222,5.4051158 11.670114,6.725595 c -0.366728,0.3635273 -0.971699,0.8379968 -1.370801,1.0750993 -0.158567,0.094203 -0.287402,0.1833675 -0.2863,0.1981441 0.0011,0.014776 0.216046,0.1654444 0.477656,0.3348176 1.977056,1.2799988 3.207989,3.347236 3.451105,5.795808 0.05529,0.556884 0.03382,0.797372 -0.08895,0.996006 -0.330265,0.53438 -1.157436,0.398442 -1.31206,-0.215625 l -0.04759,-0.189014 H 9.0443638 c -3.871982,0 -3.5960405,0.02244 -3.8688383,-0.314611 -0.2609362,-0.322395 -0.1272444,-0.870297 0.2591757,-1.062165 0.1547982,-0.07686 0.3153542,-0.08106 3.5313558,-0.0923 l 3.369184,-0.01177 -0.02694,-0.114949 C 12.260994,12.923153 11.990038,12.215902 11.86374,11.964635 L 11.741656,11.721752 9.6196767,11.720823 C 7.6453745,11.719961 7.4857074,11.71445 7.3254151,11.641649 6.8883644,11.44315 6.7701964,10.909304 7.0814345,10.539419 c 0.215205,-0.255756 0.2008057,-0.253845 1.9137047,-0.253845 0.9086119,0 1.5649978,-0.01608 1.5649978,-0.03833 0,-0.06595 -0.418972,-0.4186461 -0.7981397,-0.6718857 C 9.3415577,9.2945562 8.8217202,9.0342463 8.3488786,8.8677387 L 8.0173241,8.7509842 7.7152704,8.8479794 c -0.962167,0.3089694 -2.0172082,1.008352 -2.6719936,1.7712536 -0.9464701,1.102749 -1.4463829,2.32227 -1.5357489,3.74641 -0.044277,0.705601 -0.1353581,0.890168 -0.5182289,1.050141 -0.1882053,0.07864 -0.2577072,0.07926 -0.4682224,0.0042 z"
     id="path7112"
     transform="scale(0.03)" />
</svg>
