<?xml version="1.0" encoding="UTF-8" standalone="no"?>
<svg
   width="18"
   height="18"
   viewBox="0 0 4.7624998 4.7625002"
   version="1.1"
   id="svg1123"
   inkscape:version="1.2.2 (732a01da63, 2022-12-09)"
   sodipodi:docname="icon_info.svg"
   xmlns:inkscape="http://www.inkscape.org/namespaces/inkscape"
   xmlns:sodipodi="http://sodipodi.sourceforge.net/DTD/sodipodi-0.dtd"
   xmlns="http://www.w3.org/2000/svg"
   xmlns:svg="http://www.w3.org/2000/svg"
   xmlns:rdf="http://www.w3.org/1999/02/22-rdf-syntax-ns#"
   xmlns:cc="http://creativecommons.org/ns#"
   xmlns:dc="http://purl.org/dc/elements/1.1/">
  <defs
     id="defs1117">
    <inkscape:path-effect
       effect="fillet_chamfer"
       id="path-effect845"
       is_visible="true"
       lpeversion="1"
       satellites_param="F,0,1,1,0,0.26458333,0,1 @ F,0,1,1,0,0.26458333,0,1 @ F,0,1,1,0,0.26458333,0,1 @ F,0,1,1,0,0.26458333,0,1 | F,0,0,1,0,0,0,1 @ F,0,0,1,0,0,0,1 @ F,0,0,1,0,0,0,1 @ F,0,0,1,0,0,0,1"
       unit="px"
       method="auto"
       mode="F"
       radius="1"
       chamfer_steps="1"
       flexible="false"
       use_knot_distance="true"
       apply_no_radius="true"
       apply_with_radius="true"
       only_selected="true"
       hide_knots="false"
       nodesatellites_param="F,0,1,1,0,0.26458333,0,1 @ F,0,1,1,0,0.26458333,0,1 @ F,0,1,1,0,0.26458333,0,1 @ F,0,1,1,0,0.26458333,0,1 | F,0,0,1,0,0,0,1 @ F,0,0,1,0,0,0,1 @ F,0,0,1,0,0,0,1 @ F,0,0,1,0,0,0,1" />
  </defs>
  <sodipodi:namedview
     id="base"
     pagecolor="#ffffff"
     bordercolor="#666666"
     borderopacity="1.0"
     inkscape:pageopacity="0.0"
     inkscape:pageshadow="2"
     inkscape:zoom="47.163271"
     inkscape:cx="7.6648628"
     inkscape:cy="11.375377"
     inkscape:document-units="mm"
     inkscape:current-layer="layer1"
     inkscape:document-rotation="0"
     showgrid="false"
     units="px"
     inkscape:window-width="1728"
     inkscape:window-height="1016"
     inkscape:window-x="-8"
     inkscape:window-y="-8"
     inkscape:window-maximized="1"
     inkscape:showpageshadow="2"
     inkscape:pagecheckerboard="0"
     inkscape:deskcolor="#d1d1d1" />
  <metadata
     id="metadata1120">
    <rdf:RDF>
      <cc:Work
         rdf:about="">
        <dc:format>image/svg+xml</dc:format>
        <dc:type
           rdf:resource="http://purl.org/dc/dcmitype/StillImage" />
      </cc:Work>
    </rdf:RDF>
  </metadata>
  <g
     inkscape:label="Layer 1"
     inkscape:groupmode="layer"
     id="layer1">
    <path
       id="path831"
       style="fill:#c3ccdf;stroke-width:3.40858;stroke-linecap:round"
       d="M 2.38125,0 A 2.3812499,2.3812499 0 0 0 0,2.38125 2.3812499,2.3812499 0 0 0 2.38125,4.7625 2.3812499,2.3812499 0 0 0 4.7625,2.38125 2.3812499,2.3812499 0 0 0 2.38125,0 Z m 0,0.67030791 c 0.2262168,0 0.4098587,0.18422327 0.4098587,0.41044009 0,0.2262168 -0.1836419,0.4098587 -0.4098587,0.4098587 -0.2262168,0 -0.4098587,-0.1836419 -0.4098587,-0.4098587 0,-0.22621682 0.1836419,-0.41044009 0.4098587,-0.41044009 z M 2.3254395,1.8016342 h 0.111621 A 0.29765625,0.29765625 0 0 1 2.7347168,2.0992905 V 3.7945359 A 0.29765625,0.29765625 0 0 1 2.4370605,4.0921921 H 2.3254395 A 0.29765625,0.29765625 0 0 1 2.0277832,3.7945359 V 2.0992905 A 0.29765625,0.29765625 0 0 1 2.3254395,1.8016342 Z" />
    <path
       style="fill:#ffffff;stroke-width:0.0212029"
       d="M 8.4705745,17.977476 C 7.7736366,17.931965 6.9953108,17.788004 6.3290776,17.581381 5.4924689,17.321918 4.6030249,16.885767 3.8472679,16.364392 2.6719417,15.553568 1.6203121,14.336393 0.9634019,13.026551 0.27934854,11.662587 -0.04148939,10.151722 0.02328894,8.5994432 0.15865341,5.3557131 2.0653238,2.4197266 4.9826909,0.96270776 6.8017712,0.05420551 8.8716118,-0.21428475 10.842806,0.20256038 c 3.573318,0.75564349 6.336598,3.58584292 6.99629,7.16572242 0.113258,0.6146097 0.130144,0.8264009 0.130144,1.6323652 0,0.8059642 -0.01689,1.017756 -0.130144,1.632365 -0.282882,1.535086 -0.990867,3.020673 -2.004476,4.206056 -0.201564,0.235723 -0.684397,0.721465 -0.928953,0.934551 -1.386076,1.207712 -3.080012,1.949845 -4.9407445,2.164598 -0.2741975,0.03165 -1.2274225,0.05669 -1.494348,0.03926 z m 1.0406049,-2.544494 c 0.3812668,-0.09577 0.7208806,-0.454691 0.8047576,-0.850506 0.0256,-0.120784 0.03042,-0.662791 0.03073,-3.452842 3.6e-4,-3.2326565 -6.11e-4,-3.3133922 -0.04173,-3.4741576 C 10.197038,7.2335878 9.8671212,6.9169823 9.4413905,6.826771 9.2499774,6.786211 8.7497209,6.7866211 8.5553862,6.8274961 8.172624,6.908006 7.868929,7.1714407 7.721534,7.5508058 L 7.664863,7.6966672 7.659183,11.073593 c -0.00623,3.706042 -0.012406,3.51222 0.1202045,3.774921 0.1465229,0.29026 0.4047039,0.500514 0.7229925,0.588779 0.1499542,0.04158 0.837792,0.03864 1.0088005,-0.0043 z M 9.40497,5.5865998 c 0.4642543,-0.1187365 0.864546,-0.4766966 1.042837,-0.9325545 0.08242,-0.210732 0.09864,-0.3042183 0.09935,-0.5724794 5.81e-4,-0.2194585 -0.0078,-0.2922551 -0.0487,-0.4233116 -0.216629,-0.6940627 -0.7899663,-1.124503 -1.497815,-1.124503 -1.2494435,0 -1.9827558,1.3759775 -1.2903488,2.4211934 0.3617648,0.546098 1.0403099,0.7990122 1.6946708,0.6316551 z"
       id="path4915"
       transform="scale(0.26458333)" />
  </g>
</svg>
