<?xml version="1.0" encoding="UTF-8" standalone="no"?>
<!-- Uploaded to: SVG Repo, www.svgrepo.com, Transformed by: SVG Repo Mixer Tools -->

<svg
   fill="#000000"
   width="16"
   height="16"
   viewBox="0 0 1.12 1.12"
   version="1.1"
   id="svg1"
   sodipodi:docname="icon_show_results.svg"
   inkscape:version="1.3.2 (091e20e, 2023-11-25, custom)"
   xmlns:inkscape="http://www.inkscape.org/namespaces/inkscape"
   xmlns:sodipodi="http://sodipodi.sourceforge.net/DTD/sodipodi-0.dtd"
   xmlns="http://www.w3.org/2000/svg"
   xmlns:svg="http://www.w3.org/2000/svg">
  <defs
     id="defs1" />
  <sodipodi:namedview
     id="namedview1"
     pagecolor="#ffffff"
     bordercolor="#000000"
     borderopacity="0.25"
     inkscape:showpageshadow="2"
     inkscape:pageopacity="0.0"
     inkscape:pagecheckerboard="0"
     inkscape:deskcolor="#d1d1d1"
     inkscape:zoom="23.221387"
     inkscape:cx="16.945586"
     inkscape:cy="9.1941107"
     inkscape:window-width="1920"
     inkscape:window-height="1017"
     inkscape:window-x="-8"
     inkscape:window-y="-8"
     inkscape:window-maximized="1"
     inkscape:current-layer="svg1" />
  <g
     id="SVGRepo_bgCarrier"
     stroke-width="0" />
  <g
     id="SVGRepo_tracerCarrier"
     stroke-linecap="round"
     stroke-linejoin="round" />
  <g
     id="SVGRepo_iconCarrier"
     style="fill:#c3ccdf;fill-opacity:1"
     transform="matrix(0.02012925,0,0,0.02012925,0.00542653,-0.0065867)">
    <path
       d="m 13.5039,50.957 h 12.8437 c -1.2421,-1.0547 -2.2968,-2.3203 -3.0703,-3.7734 h -9.5625 c -2.414,0 -3.7031,-1.2422 -3.7031,-3.586 V 8.1367 c 0,-2.3203 1.2656,-3.6562 3.7031,-3.6562 H 38.207 c 2.3438,0 3.6797,1.3125 3.6797,3.6562 v 20.4375 c 1.4531,0.7734 2.7188,1.8047 3.7735,3.0469 V 8.0664 c 0,-4.8985 -2.4141,-7.3594 -7.2657,-7.3594 H 13.5039 c -4.8281,0 -7.2656,2.4844 -7.2656,7.3594 v 35.5547 c 0,4.8984 2.4375,7.3359 7.2656,7.3359 z m 3.5859,-36.914 h 17.7657 c 0.8203,0 1.4531,-0.6563 1.4531,-1.4766 0,-0.7969 -0.6328,-1.4063 -1.4531,-1.4063 H 17.0898 c -0.8671,0 -1.4765,0.6094 -1.4765,1.4063 0,0.8203 0.6094,1.4766 1.4765,1.4766 z m 0,8.1796 h 17.7657 c 0.8203,0 1.4531,-0.6562 1.4531,-1.4765 0,-0.7969 -0.6328,-1.4063 -1.4531,-1.4063 H 17.0898 c -0.8671,0 -1.4765,0.6094 -1.4765,1.4063 0,0.8203 0.6094,1.4765 1.4765,1.4765 z M 35.1367,50.957 c 2.1094,0 4.1016,-0.6094 5.7422,-1.7109 l 5.2735,5.2969 c 0.5624,0.539 1.0781,0.75 1.7109,0.75 1.0781,0 1.8984,-0.8438 1.8984,-2.0391 0,-0.5156 -0.2577,-1.0313 -0.6561,-1.4297 l -5.3439,-5.3437 c 1.1953,-1.711 1.8985,-3.7969 1.8985,-6.0469 0,-5.836 -4.711,-10.5469 -10.5235,-10.5469 -5.8125,0 -10.5703,4.7578 -10.5703,10.5469 0,5.8125 4.7578,10.5234 10.5703,10.5234 z m 0,-3.3516 c -3.9843,0 -7.2187,-3.2109 -7.2187,-7.1718 0,-3.9141 3.2344,-7.1719 7.2187,-7.1719 3.9141,0 7.1484,3.2578 7.1484,7.1719 0,3.9609 -3.2109,7.1718 -7.1484,7.1718 z"
       id="path1"
       style="fill:#c3ccdf;fill-opacity:1" />
  </g>
</svg>
