<?xml version="1.0" encoding="UTF-8" standalone="no"?>
<svg
   width="16"
   height="16"
   viewBox="0 0 4.2333332 4.2333335"
   version="1.1"
   id="svg1123"
   inkscape:version="1.2.2 (732a01da63, 2022-12-09)"
   sodipodi:docname="icon_home.svg"
   xmlns:inkscape="http://www.inkscape.org/namespaces/inkscape"
   xmlns:sodipodi="http://sodipodi.sourceforge.net/DTD/sodipodi-0.dtd"
   xmlns="http://www.w3.org/2000/svg"
   xmlns:svg="http://www.w3.org/2000/svg"
   xmlns:rdf="http://www.w3.org/1999/02/22-rdf-syntax-ns#"
   xmlns:cc="http://creativecommons.org/ns#"
   xmlns:dc="http://purl.org/dc/elements/1.1/">
  <defs
     id="defs1117" />
  <sodipodi:namedview
     id="base"
     pagecolor="#ffffff"
     bordercolor="#666666"
     borderopacity="1.0"
     inkscape:pageopacity="0.0"
     inkscape:pageshadow="2"
     inkscape:zoom="52.312834"
     inkscape:cx="7.7132124"
     inkscape:cy="8.0190647"
     inkscape:document-units="mm"
     inkscape:current-layer="layer1"
     inkscape:document-rotation="0"
     showgrid="false"
     units="px"
     inkscape:window-width="1728"
     inkscape:window-height="1016"
     inkscape:window-x="-8"
     inkscape:window-y="-8"
     inkscape:window-maximized="1"
     inkscape:showpageshadow="2"
     inkscape:pagecheckerboard="0"
     inkscape:deskcolor="#d1d1d1" />
  <metadata
     id="metadata1120">
    <rdf:RDF>
      <cc:Work
         rdf:about="">
        <dc:format>image/svg+xml</dc:format>
        <dc:type
           rdf:resource="http://purl.org/dc/dcmitype/StillImage" />
      </cc:Work>
    </rdf:RDF>
  </metadata>
  <g
     inkscape:label="Layer 1"
     inkscape:groupmode="layer"
     id="layer1">
    <path
       inkscape:export-ydpi="288.13419"
       inkscape:export-xdpi="288.13419"
       inkscape:export-filename="E:\ESTUDOS\TUTORIAIS\NEW\Qt Widgets Projects\PyOneDark\Layout\Exports\Preview_01.png"
       id="path924"
       class="ci-primary"
       d="m 2.2591467,0.08067382 c -0.12676,-0.110868 -0.32292,-0.106982 -0.44471,0.0088 -0.54091,0.514215 -1.08177003,1.02847098 -1.62268003,1.54268498 -0.1059,0.100686 -0.1917600033334,0.300754 -0.1917600033334,0.446879 v 1.889698 A 0.26458331,0.26458331 0 0 0 0.26458667,4.2333198 H 1.3985067 a 0.26458331,0.26458331 0 0 0 0.26459,-0.264584 v -1.018815 a 0.13229166,0.13229166 0 0 1 0.13229,-0.132292 h 0.64256 a 0.13229166,0.13229166 0 0 1 0.13229,0.132292 v 1.018815 a 0.26458331,0.26458331 0 0 0 0.26458,0.264584 h 1.13393 a 0.26458331,0.26458331 0 0 0 0.26459,-0.264584 v -1.896721 c 0,-0.146126 -0.0892,-0.34258 -0.19914,-0.438789 -0.59165,-0.517555 -1.18337,-1.03503798 -1.77505,-1.55255198 z m -0.21784,0.301963 c 1.2e-4,-0.0016 1.2e-4,-0.0016 1.2e-4,-0.0016 z m 1.5666,3.48136598 h -0.40055 a 0.26458331,0.26458331 0 0 1 -0.26458,-0.264584 v -0.875328 c 0,-0.158767 -0.13538,-0.287474 -0.30238,-0.287474 h -1.08254 c -0.167,0 -0.30238,0.128707 -0.30238,0.287474 v 0.875328 a 0.26458331,0.26458331 0 0 1 -0.26458003,0.264584 h -0.34208 a 0.26458331,0.26458331 0 0 1 -0.26459,-0.264584 v -1.307754 a 0.63429306,0.63429306 0 0 1 0.18802,-0.450739 L 1.9474167,0.47937082 c 0.0519,-0.0514 0.094,-0.09339 0.0942,-0.09339 l 1.63381,1.46450498 a 0.59248392,0.59248392 0 0 1 0.19702,0.441184 v 1.307755 a 0.26458331,0.26458331 0 0 1 -0.26458,0.264585 z"
       fill="var(--ci-primary-color, currentColor)"
       style="fill:#c3ccdf;fill-opacity:1;stroke-width:0.00921352"
       sodipodi:nodetypes="cccccccccccscsccssssccccccc" />
    <path
       style="fill:#ffffff;stroke-width:0.0191158"
       d="M 0.76671304,15.96011 C 0.40594444,15.86309 0.15786493,15.620327 0.0446964,15.253566 0.01109835,15.144681 0.00955788,14.976272 0.00955788,11.412114 c 0,-3.4991382 0.00208588,-3.7378152 0.03403676,-3.8946666 C 0.14250118,7.0319016 0.40805316,6.5052453 0.70438291,6.2069386 0.77438435,6.1364703 2.1979071,4.7798978 3.8677669,3.1923333 5.7412045,1.4112238 6.9546662,0.27135536 7.0365064,0.21576971 7.2092512,0.09844163 7.4284171,0.02747033 7.6558651,0.0152063 7.8781209,0.00322223 8.066302,0.04234856 8.270446,0.14298897 c 0.1427445,0.0703712 0.4391383,0.32442237 3.536417,3.03120473 1.859338,1.6249179 3.443233,3.0185578 3.519767,3.0969773 0.235298,0.2410963 0.435541,0.585889 0.555705,0.9568568 0.114265,0.3527559 0.108005,0.1108155 0.108005,4.1745282 0,3.573527 -0.0015,3.742153 -0.03515,3.851827 -0.112397,0.36677 -0.403687,0.642916 -0.754318,0.715102 -0.06981,0.01437 -0.801052,0.02085 -2.352003,0.02085 -2.451239,0 -2.348985,0.0043 -2.579834,-0.10757 -0.196051,-0.09498 -0.3937301,-0.316302 -0.4881524,-0.546548 -0.041383,-0.100912 -0.041405,-0.101841 -0.050959,-2.203689 -0.00947,-2.084389 -0.00991,-2.103485 -0.049608,-2.188756 -0.022028,-0.04731 -0.079275,-0.122004 -0.1272162,-0.165983 -0.155587,-0.14273 -0.1238218,-0.139869 -1.5531525,-0.139869 -1.4293307,0 -1.3975654,-0.0029 -1.5531525,0.139869 -0.047941,0.04398 -0.1051883,0.118672 -0.1272162,0.165983 -0.039701,0.08527 -0.040134,0.104367 -0.049608,2.188756 -0.00955,2.101848 -0.00958,2.102777 -0.050959,2.203689 -0.1300509,0.317126 -0.3841943,0.542908 -0.7033515,0.624862 -0.1665786,0.04277 -4.58964305,0.04187 -4.74894876,-9.75e-4 z M 3.9592961,14.586509 c 0.34236,-0.07257 0.6319205,-0.335186 0.7480073,-0.678409 0.042458,-0.125531 0.0425,-0.12711 0.052606,-1.979861 0.00921,-1.689098 0.013048,-1.862741 0.043062,-1.9498081 C 4.9120633,9.6619684 5.1587863,9.4160848 5.5007238,9.2830532 L 5.6295937,9.232916 7.8830053,9.22768 c 2.4980097,-0.0058 2.3524647,-0.012499 2.6250217,0.1207415 0.239755,0.1172049 0.438787,0.3357778 0.545038,0.5985483 l 0.04364,0.1079242 0.0099,1.863787 c 0.0099,1.861635 0.0099,1.863933 0.05229,1.989419 0.1173,0.347538 0.428855,0.622108 0.777656,0.685342 0.06978,0.01265 0.438225,0.02056 0.95751,0.02056 0.784067,0 0.854809,-0.0027 0.994937,-0.03858 0.185814,-0.04752 0.326285,-0.128855 0.467629,-0.270754 0.120617,-0.12109 0.231471,-0.325766 0.265218,-0.489689 0.02888,-0.140254 0.02921,-5.2552038 3.56e-4,-5.4626447 C 14.56055,7.9092356 14.344731,7.4574006 14.036425,7.1260074 13.871526,6.9487606 7.7373246,1.4602603 7.7111273,1.4665263 7.6829139,1.4732746 2.2136147,6.8865625 2.049274,7.0703963 1.7568215,7.397538 1.5565785,7.8112685 1.4810373,8.2444543 c -0.04002,0.2294911 -0.042165,5.4649667 -0.0023,5.6144777 0.074199,0.278283 0.2764914,0.525611 0.528419,0.646061 0.078853,0.0377 0.1863788,0.07669 0.2389471,0.08664 0.1617611,0.03062 1.5643309,0.02643 1.7131934,-0.0051 z"
       id="path6014"
       transform="scale(0.26458333)" />
  </g>
</svg>
