<?xml version="1.0" encoding="UTF-8" standalone="no"?>
<svg
   width="16"
   height="16"
   viewBox="0 0 4.2333332 4.2333335"
   version="1.1"
   id="svg1123"
   inkscape:version="1.2.2 (732a01da63, 2022-12-09)"
   sodipodi:docname="icon_save.svg"
   xmlns:inkscape="http://www.inkscape.org/namespaces/inkscape"
   xmlns:sodipodi="http://sodipodi.sourceforge.net/DTD/sodipodi-0.dtd"
   xmlns="http://www.w3.org/2000/svg"
   xmlns:svg="http://www.w3.org/2000/svg"
   xmlns:rdf="http://www.w3.org/1999/02/22-rdf-syntax-ns#"
   xmlns:cc="http://creativecommons.org/ns#"
   xmlns:dc="http://purl.org/dc/elements/1.1/">
  <defs
     id="defs1117" />
  <sodipodi:namedview
     id="base"
     pagecolor="#ffffff"
     bordercolor="#666666"
     borderopacity="1.0"
     inkscape:pageopacity="0.0"
     inkscape:pageshadow="2"
     inkscape:zoom="50.945244"
     inkscape:cx="7.7043502"
     inkscape:cy="8.0184129"
     inkscape:document-units="mm"
     inkscape:current-layer="layer1"
     inkscape:document-rotation="0"
     showgrid="false"
     units="px"
     inkscape:window-width="1728"
     inkscape:window-height="1016"
     inkscape:window-x="-8"
     inkscape:window-y="-8"
     inkscape:window-maximized="1"
     inkscape:showpageshadow="2"
     inkscape:pagecheckerboard="0"
     inkscape:deskcolor="#d1d1d1" />
  <metadata
     id="metadata1120">
    <rdf:RDF>
      <cc:Work
         rdf:about="">
        <dc:format>image/svg+xml</dc:format>
        <dc:type
           rdf:resource="http://purl.org/dc/dcmitype/StillImage" />
      </cc:Work>
    </rdf:RDF>
  </metadata>
  <g
     inkscape:label="Layer 1"
     inkscape:groupmode="layer"
     id="layer1">
    <path
       id="path1759"
       style="fill:#c3ccdf;fill-opacity:1;stroke-width:0.0333333"
       d="M 1.3339844 0 C 0.89237001 0.00051430825 0.53371744 0.35916689 0.53320312 0.80078125 L 0.53320312 15.199219 C 0.53371737 15.640833 0.89236979 15.999486 1.3339844 16 L 14.666016 16 C 15.10763 15.999486 15.466282 15.640833 15.466797 15.199219 L 15.466797 4.1113281 C 15.467385 3.8990566 15.382939 3.6946016 15.232422 3.5449219 L 11.921875 0.234375 C 11.772195 0.083857583 11.56774 -0.00058789361 11.355469 0 L 1.3339844 0 z M 2.1699219 1.5957031 L 4.2675781 1.5957031 L 4.2675781 5.3339844 L 11.199219 5.3339844 L 11.199219 1.5957031 L 11.246094 1.5957031 L 13.849609 4.2207031 L 13.849609 14.580078 L 2.1699219 14.580078 L 2.1699219 1.5957031 z M 5.765625 1.5957031 L 9.6230469 1.5957031 L 9.6230469 3.8945312 L 5.765625 3.8945312 L 5.765625 1.5957031 z M 7.8671875 6.9335938 C 5.1348907 6.9335938 3.7674272 10.236177 5.6992188 12.167969 C 7.63101 14.09976 10.933594 12.732297 10.933594 10 C 10.931757 8.3070891 9.5600984 6.9354309 7.8671875 6.9335938 z M 7.8652344 8.5234375 C 8.6813058 8.524323 9.3428645 9.1858818 9.34375 10.001953 C 9.34375 11.319063 7.7515363 11.9781 6.8203125 11.046875 C 5.8890879 10.115651 6.548125 8.5234375 7.8652344 8.5234375 z "
       transform="scale(0.26458333)" />
    <path
       style="fill:#ffffff;stroke-width:0.0196289"
       d="M 1.0974319,15.950587 C 0.89054488,15.884286 0.70535855,15.719934 0.6111496,15.519015 L 0.55942415,15.4087 V 7.9987839 0.58886753 L 0.61429223,0.4771359 C 0.69931709,0.30399395 0.82405007,0.17887175 0.99668576,0.09354915 L 1.1462507,0.01962892 6.2998621,0.01442498 c 5.1110949,-0.005161 5.1546849,-0.00487889 5.2837369,0.03419586 0.07906,0.02393718 0.17535,0.0732709 0.245362,0.12570568 0.06338,0.0474682 0.871818,0.84471728 1.79653,1.77166458 1.861174,1.8656732 1.78406,1.7779288 1.822484,2.0737038 0.02376,0.1828619 0.0247,11.0843681 9.78e-4,11.2684741 -0.0357,0.277035 -0.236677,0.543255 -0.486131,0.643941 l -0.113546,0.04583 -6.8210487,0.0039 c -6.5089811,0.0037 -6.8260698,0.0023 -6.9307954,-0.03126 z M 13.858016,9.4042835 V 4.2144668 L 12.550623,2.8972973 c -0.719066,-0.7244432 -1.31971,-1.3171694 -1.334766,-1.3171694 -0.02322,0 -0.02737,0.2843564 -0.02737,1.8745616 V 5.3292511 H 7.7337936 4.2791041 V 3.4546895 1.5801279 H 3.2191425 2.1591809 V 8.0871141 14.5941 H 8.0085984 13.858016 Z M 9.6377986,2.738234 V 1.5801279 H 7.6945357 5.7512729 V 2.738234 3.8963402 h 1.9432628 1.9432629 z"
       id="path10033"
       transform="scale(0.26458333)" />
    <path
       style="fill:#ffffff;stroke-width:0.0196289"
       d="M 7.4786176,13.04301 C 7.0096504,12.977965 6.5777693,12.814563 6.1909418,12.555819 5.509036,12.099699 5.0350251,11.409249 4.8639757,10.622943 c -0.037001,-0.170094 -0.043504,-0.260136 -0.043504,-0.602381 0,-0.3443983 0.00641,-0.4320966 0.044475,-0.608496 0.142252,-0.6592191 0.4361919,-1.1868144 0.9186139,-1.6488291 1.1525389,-1.1037841 3.020685,-1.0915548 4.1835054,0.027386 0.683369,0.6575817 1.009455,1.501602 0.944952,2.445858 -0.0744,1.089125 -0.720204,2.035361 -1.7146128,2.512257 -0.4227139,0.202724 -0.8088832,0.294269 -1.2869514,0.305085 -0.1673365,0.0038 -0.3616628,-0.0011 -0.4318362,-0.01081 z m 0.7816432,-1.608727 c 0.5162682,-0.145882 0.9119799,-0.54714 1.044767,-1.059412 0.036285,-0.139982 0.041434,-0.203206 0.03432,-0.4214371 C 9.3320711,9.7302127 9.3231111,9.6742283 9.2707329,9.5247123 9.1942645,9.3064299 9.1109084,9.1679561 8.9525672,8.9961658 8.7504109,8.7768388 8.4931793,8.6239986 8.2094018,8.5545967 8.0167495,8.5074808 7.6695566,8.5126199 7.4716513,8.5655169 6.8327299,8.7362904 6.3793982,9.3370839 6.3793982,10.013064 c 0,0.692367 0.5058849,1.307013 1.1945439,1.451362 0.175916,0.03687 0.4994361,0.02266 0.6863187,-0.03014 z"
       id="path10035"
       transform="scale(0.26458333)" />
  </g>
</svg>
