<?xml version="1.0" encoding="UTF-8" standalone="no"?>
<svg
   width="20"
   height="20"
   viewBox="0 0 5.2916665 5.2916664"
   version="1.1"
   id="svg8"
   inkscape:version="1.2.2 (732a01da63, 2022-12-09)"
   sodipodi:docname="icon_settings.svg"
   xmlns:inkscape="http://www.inkscape.org/namespaces/inkscape"
   xmlns:sodipodi="http://sodipodi.sourceforge.net/DTD/sodipodi-0.dtd"
   xmlns="http://www.w3.org/2000/svg"
   xmlns:svg="http://www.w3.org/2000/svg"
   xmlns:rdf="http://www.w3.org/1999/02/22-rdf-syntax-ns#"
   xmlns:cc="http://creativecommons.org/ns#"
   xmlns:dc="http://purl.org/dc/elements/1.1/">
  <defs
     id="defs2">
    <inkscape:path-effect
       hide_knots="false"
       only_selected="true"
       apply_with_radius="true"
       apply_no_radius="true"
       use_knot_distance="true"
       flexible="false"
       chamfer_steps="1"
       radius="1"
       mode="F"
       method="auto"
       unit="px"
       satellites_param="F,0,0,1,0,0,0,1 @ F,0,1,1,0,0.26458333,0,1 @ F,0,0,1,0,0,0,1 @ F,0,0,1,0,0,0,1 @ F,0,1,1,0,0.26458333,0,1 @ F,0,1,1,0,0.26458333,0,1 @ F,0,0,1,0,0,0,1 @ F,0,0,1,0,0,0,1 @ F,0,1,1,0,0.26458333,0,1 @ F,0,0,1,0,0,0,1 @ F,0,1,1,0,0.26458333,0,1 @ F,0,0,1,0,0,0,1 @ F,0,0,1,0,0,0,1 @ F,0,1,1,0,0.26458333,0,1 @ F,0,1,1,0,0.26458333,0,1 @ F,0,0,1,0,0,0,1 @ F,0,0,1,0,0,0,1 @ F,0,0,1,0,0,0,1 @ F,0,1,1,0,0.26458333,0,1 @ F,0,0,1,0,0,0,1 @ F,0,1,1,0,0.26458333,0,1 @ F,0,0,1,0,0,0,1 @ F,0,0,1,0,0,0,1 @ F,0,1,1,0,0.26458333,0,1 @ F,0,1,1,0,0.26458333,0,1 @ F,0,0,1,0,0,0,1 @ F,0,0,1,0,0,0,1 @ F,0,0,1,0,0,0,1 @ F,0,1,1,0,0.26458333,0,1 @ F,0,0,1,0,0,0,1 @ F,0,1,1,0,0.26458333,0,1 @ F,0,0,1,0,0,0,1 @ F,0,0,1,0,0,0,1 @ F,0,1,1,0,0.26458333,0,1 @ F,0,1,1,0,0.26458333,0,1 @ F,0,0,1,0,0,0,1 @ F,0,0,1,0,0,0,1 @ F,0,1,1,0,0.26458333,0,1 @ F,0,0,1,0,0,0,1 @ F,0,0,1,0,0,0,1 | F,0,0,1,0,0,0,1 @ F,0,0,1,0,0,0,1 @ F,0,0,1,0,0,0,1 @ F,0,0,1,0,0,0,1"
       lpeversion="1"
       is_visible="true"
       id="path-effect1635"
       effect="fillet_chamfer"
       nodesatellites_param="F,0,0,1,0,0,0,1 @ F,0,1,1,0,0.26458333,0,1 @ F,0,0,1,0,0,0,1 @ F,0,0,1,0,0,0,1 @ F,0,1,1,0,0.26458333,0,1 @ F,0,1,1,0,0.26458333,0,1 @ F,0,0,1,0,0,0,1 @ F,0,0,1,0,0,0,1 @ F,0,1,1,0,0.26458333,0,1 @ F,0,0,1,0,0,0,1 @ F,0,1,1,0,0.26458333,0,1 @ F,0,0,1,0,0,0,1 @ F,0,0,1,0,0,0,1 @ F,0,1,1,0,0.26458333,0,1 @ F,0,1,1,0,0.26458333,0,1 @ F,0,0,1,0,0,0,1 @ F,0,0,1,0,0,0,1 @ F,0,0,1,0,0,0,1 @ F,0,1,1,0,0.26458333,0,1 @ F,0,0,1,0,0,0,1 @ F,0,1,1,0,0.26458333,0,1 @ F,0,0,1,0,0,0,1 @ F,0,0,1,0,0,0,1 @ F,0,1,1,0,0.26458333,0,1 @ F,0,1,1,0,0.26458333,0,1 @ F,0,0,1,0,0,0,1 @ F,0,0,1,0,0,0,1 @ F,0,0,1,0,0,0,1 @ F,0,1,1,0,0.26458333,0,1 @ F,0,0,1,0,0,0,1 @ F,0,1,1,0,0.26458333,0,1 @ F,0,0,1,0,0,0,1 @ F,0,0,1,0,0,0,1 @ F,0,1,1,0,0.26458333,0,1 @ F,0,1,1,0,0.26458333,0,1 @ F,0,0,1,0,0,0,1 @ F,0,0,1,0,0,0,1 @ F,0,1,1,0,0.26458333,0,1 @ F,0,0,1,0,0,0,1 @ F,0,0,1,0,0,0,1 | F,0,0,1,0,0,0,1 @ F,0,0,1,0,0,0,1 @ F,0,0,1,0,0,0,1 @ F,0,0,1,0,0,0,1" />
  </defs>
  <sodipodi:namedview
     id="base"
     pagecolor="#3b3b3b"
     bordercolor="#666666"
     borderopacity="1.0"
     inkscape:pageopacity="0"
     inkscape:pageshadow="2"
     inkscape:zoom="40.756193"
     inkscape:cx="9.6304383"
     inkscape:cy="10.023017"
     inkscape:document-units="mm"
     inkscape:current-layer="layer1"
     inkscape:document-rotation="0"
     showgrid="false"
     units="px"
     inkscape:window-width="1728"
     inkscape:window-height="1016"
     inkscape:window-x="-8"
     inkscape:window-y="-8"
     inkscape:window-maximized="1"
     inkscape:showpageshadow="2"
     inkscape:pagecheckerboard="0"
     inkscape:deskcolor="#3b3b3b" />
  <metadata
     id="metadata5">
    <rdf:RDF>
      <cc:Work
         rdf:about="">
        <dc:format>image/svg+xml</dc:format>
        <dc:type
           rdf:resource="http://purl.org/dc/dcmitype/StillImage" />
      </cc:Work>
    </rdf:RDF>
  </metadata>
  <g
     inkscape:label="Layer 1"
     inkscape:groupmode="layer"
     id="layer1">
    <path
       id="path872"
       style="fill:#e6e6e6;fill-opacity:1;stroke:#333333;stroke-width:0;stroke-linecap:round;stroke-miterlimit:4;stroke-dasharray:none"
       d="M 2.6280115,1.0798987e-5 C 2.5343304,6.4896755e-4 2.4408118,0.00626199 2.3478488,0.0168065 2.2027152,0.03326856 2.1300123,0.14971705 2.1299985,0.2662408 2.1299913,0.55113274 1.8990498,0.78208194 1.6141658,0.7820908 1.4986508,0.78213223 1.3893358,0.74363258 1.301207,0.67645227 1.1862838,0.58884666 1.04171,0.53671311 0.93050512,0.63141419 0.8008811,0.74180083 0.68221129,0.86444503 0.57615248,0.99763452 0.48516917,1.1118921 0.5160579,1.2456361 0.59841095,1.3280108 c 0.20144445,0.2014558 0.20144445,0.5280742 0,0.72953 C 0.5167524,2.1391767 0.41226067,2.1891924 0.30248397,2.2039744 0.15927027,2.223259 0.02017503,2.2885925 0.00848632,2.4341886 0.00283791,2.504546 4.2220498e-6,2.5751364 5.33293e-7,2.6457908 1.4369918e-5,2.7454853 0.00566259,2.8450284 0.01689451,2.9439466 0.03337385,3.0890782 0.14976109,3.1618227 0.2661931,3.1618109 c 0.284884,8.8e-6 0.51582547,0.230958 0.51583273,0.5158499 -4.99e-6,0.1154405 -0.038496,0.2246762 -0.10562929,0.3127518 -0.0876003,0.1149273 -0.13973456,0.2595082 -0.0450368,0.370716 0.1103825,0.129627 0.23302209,0.2482998 0.36620659,0.3543614 0.11425468,0.090987 0.24799488,0.060104 0.33036448,-0.022249 0.09462,-0.094613 0.2223009,-0.1487558 0.3560881,-0.1510001 0.1397958,-0.00236 0.2745597,0.052138 0.3734296,0.1510001 0.081631,0.081662 0.1316434,0.1861559 0.1464235,0.2959349 0.019282,0.1432143 0.084618,0.2823107 0.2302139,0.2939996 0.070406,0.00565 0.1410459,0.00849 0.2117494,0.00849 0.099638,-1.43e-5 0.1991239,-0.00566 0.2979864,-0.016878 0.1451323,-0.016472 0.2178695,-0.132855 0.2178472,-0.2492923 7.3e-6,-0.2848919 0.2309487,-0.515841 0.5158327,-0.5158499 0.1154582,-5.9e-6 0.2247125,0.03849 0.3127998,0.1056385 0.1149233,0.087606 0.259497,0.139739 0.3707018,0.045038 C 4.490627,4.5499307 4.6092965,4.4272866 4.7153551,4.2940973 4.8063383,4.1798397 4.7754501,4.0460955 4.6930975,3.9637209 4.491653,3.762265 4.491653,3.4356467 4.6930975,3.2341908 4.7877177,3.1395786 4.9153979,3.0854354 5.0491848,3.083191 5.1612886,3.0813088 5.2714914,3.0031493 5.2831802,2.8575533 5.2888329,2.7871428 5.2916667,2.7164989 5.2916661,2.6457911 5.2916467,2.5461468 5.2859985,2.4466539 5.2747723,2.3477854 5.258293,2.2026539 5.1418323,2.1299454 5.0253138,2.1299211 4.7404293,2.1299128 4.5094872,1.8989635 4.50948,1.6140711 4.5094739,1.4986126 4.5479665,1.3893577 4.61511,1.301269 4.7027106,1.1863419 4.754858,1.0417524 4.6601751,0.93053212 4.5497852,0.80086155 4.4271314,0.68214863 4.2939268,0.57605146 4.1796803,0.48505434 4.0459758,0.51601801 3.9635743,0.59845111 c -0.2014511,0.20145486 -0.5280659,0.20145486 -0.729517,0 C 3.1524224,0.51678717 3.1024087,0.41228854 3.0876298,0.30250541 3.0683503,0.15929076 3.0030158,0.02019523 2.8574199,0.00850627 2.7870664,0.00285804 2.71648,2.446499e-5 2.6458296,2.0798987e-5 c -0.00594,-2.000188233e-5 -0.011879,-2.000188233e-5 -0.017819,0 z M 2.645831,1.7805008 c 0.4778543,6.1e-6 0.8652305,0.3873924 0.8652373,0.86526 C 3.5111499,3.1236909 3.1237479,3.5111748 2.645831,3.5111809 2.167914,3.5111751 1.7805116,3.1236911 1.7805932,2.6457608 1.7806,2.167893 2.1679765,1.7805066 2.645831,1.7805008 Z" />
    <path
       style="fill:#ffffff;stroke-width:0.0245361"
       d="M 9.262396,19.960183 C 8.9350659,19.925033 8.7501472,19.816014 8.5853397,19.561025 8.4717319,19.385251 8.4099921,19.203107 8.3338986,18.819226 8.2617498,18.455246 8.1625511,18.214794 7.9800157,17.961436 7.739137,17.627098 7.371899,17.367203 6.9559981,17.236737 6.7357935,17.16766 6.298826,17.143509 6.0520186,17.186776 5.6793462,17.252106 5.3432707,17.427652 4.9716989,17.751071 4.7508785,17.943275 4.5905659,18.007298 4.3306302,18.00709 4.0837779,18.006893 3.9550213,17.949001 3.643618,17.6982 3.3798333,17.485749 2.819807,16.944437 2.5393733,16.630854 2.2391288,16.295119 2.1690755,16.102913 2.2314328,15.785958 2.2732171,15.573572 2.3480048,15.416905 2.5500971,15.118411 2.8380992,14.693027 2.9349378,14.425416 2.9600186,13.985605 3.0138097,13.042331 2.3461253,12.176052 1.4176316,11.984453 1.292436,11.958618 1.1174787,11.937336 1.0288375,11.937159 0.63716334,11.936375 0.30476558,11.735465 0.15738429,11.410429 0.12651015,11.342338 0.08839666,11.192778 0.07268764,11.078071 0.03092386,10.773114 0.00988616,10.049336 0.02847046,9.5568298 0.04198187,9.1987613 0.05377222,9.1032376 0.09946015,8.9816806 0.2227476,8.6536635 0.56198276,8.4455135 1.1409309,8.3426494 1.2623848,8.3210701 1.4169626,8.285782 1.484437,8.2642312 2.5399406,7.9271116 3.1045304,6.7692147 2.7230647,5.723974 2.6326325,5.4761837 2.5168506,5.2878278 2.3015946,5.0383197 2.0568028,4.7545761 1.9995991,4.6226489 2.0000595,4.3428983 2.0005181,4.0641914 2.0429498,3.965352 2.2995176,3.6453459 2.5328445,3.354327 3.428765,2.4560707 3.5930939,2.3483969 3.9470853,2.1164498 4.3527017,2.181714 4.891738,2.5573505 5.2978569,2.8403612 5.6486809,2.9567161 6.0950236,2.9564339 6.8421898,2.9559628 7.4607631,2.595698 7.8219992,1.9506238 7.9544834,1.7140416 8.0231758,1.4617828 8.0600028,1.0766049 8.0975762,0.68362062 8.144362,0.54548034 8.3005635,0.36632077 8.4111053,0.23953216 8.6313822,0.12190054 8.8207454,0.08853496 9.3130776,0.00178653 10.622424,-0.00796969 10.926748,0.07284268 c 0.406961,0.10806747 0.619623,0.43411112 0.742411,1.13822682 0.135602,0.7776015 0.708741,1.3917835 1.469948,1.5752118 0.269438,0.064927 0.67385,0.064414 0.934583,-0.00119 0.29776,-0.074915 0.600501,-0.2373828 0.863352,-0.4633238 0.256825,-0.2207608 0.377278,-0.2875287 0.590132,-0.3271132 0.122118,-0.02271 0.176132,-0.020453 0.311819,0.013031 0.205427,0.050694 0.274608,0.093543 0.624763,0.3869588 0.317748,0.2662609 1.056259,1.0110704 1.178072,1.1881195 0.145628,0.2116631 0.180667,0.4360795 0.11028,0.706315 -0.04806,0.1845003 -0.128698,0.3401432 -0.325092,0.6274411 -0.08875,0.1298367 -0.187349,0.2946421 -0.219099,0.3662342 -0.432822,0.9759643 -0.02964,2.1116506 0.912029,2.5690277 0.280567,0.1362738 0.467488,0.1833476 0.829039,0.2087837 0.243324,0.017119 0.31392,0.031897 0.444677,0.093085 0.305656,0.1430337 0.480808,0.3845104 0.528356,0.7284304 0.08436,0.6101706 0.07909,1.8399073 -0.0091,2.1328363 -0.04684,0.155517 -0.188037,0.360042 -0.303687,0.439891 -0.171141,0.118163 -0.312784,0.163989 -0.579228,0.187398 -0.33562,0.02949 -0.518372,0.07789 -0.787343,0.208531 -0.87616,0.425558 -1.295152,1.442645 -0.981727,2.383107 0.08379,0.251415 0.214538,0.469867 0.432309,0.722291 0.250137,0.28994 0.304152,0.416253 0.303693,0.710191 -4.34e-4,0.278287 -0.03854,0.367474 -0.288718,0.675667 -0.394134,0.485537 -1.118014,1.200266 -1.35484,1.337712 -0.344817,0.200121 -0.70752,0.129573 -1.258821,-0.244851 -0.448422,-0.304553 -0.693738,-0.382236 -1.207062,-0.382236 -0.30442,0 -0.382337,0.0083 -0.539795,0.05749 -0.554192,0.173132 -0.954556,0.513459 -1.202409,1.022102 -0.130437,0.267681 -0.179526,0.469946 -0.2155,0.88794 -0.02692,0.312769 -0.115363,0.512049 -0.301559,0.679455 -0.149791,0.134675 -0.308558,0.197035 -0.599297,0.235388 -0.274295,0.03618 -1.5011885,0.05368 -1.766504,0.02519 z m 1.400627,-6.745845 c 0.42436,-0.09031 0.786418,-0.240827 1.157018,-0.481016 0.260534,-0.168855 0.726715,-0.63037 0.898045,-0.889059 C 13.469022,10.710436 13.46281,9.2620258 12.702178,8.1348177 12.539839,7.894241 12.209788,7.5537529 11.949104,7.3579294 11.579566,7.080335 11.083481,6.8663145 10.584256,6.7691075 10.287732,6.7113692 9.7082127,6.7115729 9.4105031,6.7695197 8.760357,6.8960658 8.2121017,7.1747788 7.7503056,7.6135035 7.2767508,8.0633993 6.9863557,8.5593814 6.8137223,9.2131463 c -0.07032,0.2663039 -0.074669,0.3095226 -0.076553,0.7607978 -0.0022,0.5278179 0.02515,0.7128929 0.1631846,1.1041269 0.3295644,0.93409 1.0612443,1.676936 1.9725446,2.002647 0.2756479,0.09852 0.3873855,0.126436 0.6839309,0.170867 0.2879751,0.04315 0.8112006,0.02553 1.1061936,-0.03725 z"
       id="path8934"
       transform="scale(0.26458333)" />
  </g>
</svg>
