<?xml version="1.0" encoding="UTF-8" standalone="no"?>
<!-- Uploaded to: SVG Repo, www.svgrepo.com, Generator: SVG Repo Mixer Tools -->

<svg
   width="16"
   height="16"
   viewBox="0 0 0.48 0.48"
   fill="none"
   version="1.1"
   id="svg4"
   sodipodi:docname="icon_microscope.svg"
   inkscape:version="1.2.2 (732a01da63, 2022-12-09)"
   xmlns:inkscape="http://www.inkscape.org/namespaces/inkscape"
   xmlns:sodipodi="http://sodipodi.sourceforge.net/DTD/sodipodi-0.dtd"
   xmlns="http://www.w3.org/2000/svg"
   xmlns:svg="http://www.w3.org/2000/svg">
  <defs
     id="defs8" />
  <sodipodi:namedview
     id="namedview6"
     pagecolor="#ffffff"
     bordercolor="#000000"
     borderopacity="0.25"
     inkscape:showpageshadow="2"
     inkscape:pageopacity="0.0"
     inkscape:pagecheckerboard="0"
     inkscape:deskcolor="#d1d1d1"
     showgrid="false"
     inkscape:zoom="37.76"
     inkscape:cx="8.9645127"
     inkscape:cy="6.9518008"
     inkscape:window-width="1728"
     inkscape:window-height="1016"
     inkscape:window-x="-8"
     inkscape:window-y="-8"
     inkscape:window-maximized="1"
     inkscape:current-layer="g1111" />
  <g
     id="g1111">
    <g
       id="g1029"
       style="fill:#c3ccdf;fill-opacity:1"
       transform="matrix(1.2306595,0,0,1.2306595,-0.05474084,0.00238347)">
      <path
         d="m 0.07012337,0.35043026 c -0.01042434,0 -0.01887518,0.008716 -0.01887518,0.0194684 0,0.0107523 0.0084511,0.0194683 0.01887511,0.0194683 z m 0.33975334,0.0389366 c 0.0104247,0 0.0188751,-0.008716 0.0188751,-0.0194683 0,-0.0107523 -0.00845,-0.0194683 -0.0188751,-0.0194683 z M 0.14562413,0.29202518 c -0.0104247,0 -0.0188751,0.008716 -0.0188751,0.0194683 0,0.0107523 0.008451,0.0194683 0.0188751,0.0194683 z m 0.13212629,0.0389366 c 0.0104247,0 0.0188751,-0.008716 0.0188751,-0.0194683 0,-0.0107523 -0.00845,-0.0194683 -0.0188751,-0.0194683 z m -0.0943759,-0.0973415 c -0.0104247,0 -0.0188751,0.008716 -0.0188751,0.0194683 0,0.0107523 0.008451,0.0194683 0.0188751,0.0194683 z m 0.0566253,0.0389366 c 0.0104247,0 0.0188751,-0.008716 0.0188751,-0.0194683 0,-0.0107523 -0.008451,-0.0194683 -0.0188751,-0.0194683 z M 0.16449932,0.058405 V 0.03893671 c -0.0104247,0 -0.0188751,0.0087167 -0.0188751,0.01946829 z m 0.0943759,0 h 0.0188751 c 0,-0.0107516 -0.00845,-0.01946829 -0.0188751,-0.01946829 z m 0,0.13627848 v 0.0194683 c 0.0104247,0 0.0188751,-0.008716 0.0188751,-0.0194683 z m -0.0943759,0 h -0.0188751 c 0,0.0107523 0.008451,0.0194683 0.0188751,0.0194683 z M 0.18337442,0.058405 v 0.01946827 c 0.008661,0 0.0162114,-0.0060803 0.0183112,-0.01474679 z m 0.0471881,-0.03893656 0.0183106,-0.0047189 C 0.24677411,0.00607992 0.23922411,0 0.23056241,0 Z m -0.0377502,0 V -2.0314253e-8 c -0.008661,0 -0.0162114,0.0060803603143 -0.0183112,0.01474676031425 z M 0.24000042,0.058405 0.22168922,0.0631239 c 0.002095,0.0086664 0.009649,0.01474677 0.0183112,0.01474677 z m 0.0188751,0.03893653 c -0.0104247,0 -0.0188751,0.0087166 -0.0188751,0.01946826 0,0.0107523 0.00845,0.0194683 0.0188751,0.0194683 z m 0.0583528,0.25588222 c -0.00893,0.005552 -0.0118062,0.0175133 -0.006425,0.0267224 0.005382,0.00921 0.0169784,0.0121772 0.0259082,0.006627 z M 0.0701237,0.38936666 H 0.40987666 V 0.35043024 H 0.07012332 Z M 0.14562408,0.33096192 H 0.27775042 V 0.29202518 H 0.14562413 Z m 0.0377503,-0.0584048 h 0.0566253 v -0.0389366 h -0.0566253 z m 0.0566253,-0.21415184 v 0.1362785 h 0.0377502 V 0.05840502 Z m 0.0188756,0.11680983 h -0.094376 v 0.0389366 h 0.0943759 z m -0.0755008,0.0194683 V 0.05840481 H 0.14562408 V 0.1946835 Z M 0.16449928,0.07787345 h 0.0188751 V 0.03893681 h -0.0188751 z m 0.037187,-0.01474676 0.009437,-0.03893655 -0.0366225,-0.0094437 -0.009437,0.03893653 z m -0.008874,-0.02419044 h 0.0377502 V 0 h -0.0377502 z m 0.0194396,-0.01474677 0.009437,0.03893655 0.0366218,-0.0094437 -0.009437,-0.03893653 z m 0.0277485,0.05368331 H 0.2588755 V 0.03893615 H 0.2400004 Z m 0.0188751,0.0584048 c 0.0625467,0 0.11325112,0.052298 0.11325112,0.11681009 h 0.0377502 c 0,-0.086017 -0.0676053,-0.15574676 -0.15100147,-0.15574676 z M 0.3721266,0.25308768 c 0,0.0424685 -0.0219617,0.0796645 -0.0548985,0.10013547 L 0.3367113,0.3865724 C 0.3805129,0.35934969 0.409877,0.30976592 0.409877,0.25308782 Z"
         fill="#000000"
         id="path2"
         style="fill:#c3ccdf;fill-opacity:1;stroke-width:0.0191695" />
    </g>
    <path
       style="fill:none;fill-opacity:0.371007;stroke:none;stroke-width:0.0511917;stroke-opacity:1;stop-color:#000000"
       d="M 2.0733861,12.896127 C 1.9221482,12.820762 1.8182271,12.701575 1.760097,12.536817 1.6798645,12.309414 1.7268325,12.095142 1.8988494,11.903818 2.1053559,11.674133 1.7107971,11.692267 6.5017569,11.692267 h 4.2412621 l 0.252044,-0.20874 C 12.771867,10.011998 12.899902,7.274553 11.26831,5.6413756 10.959062,5.3318268 10.673309,5.1214394 10.312874,4.9379312 10.042572,4.800312 9.5602723,4.6311539 9.3598877,4.603688 L 9.2425848,4.5876099 9.2420022,5.6041865 c -5.535e-4,0.9653874 -0.0033,1.022577 -0.054527,1.13575 C 9.1209632,6.8868703 9.0237386,6.9919489 8.8850625,7.0667792 8.7796385,7.1236663 8.77087,7.1239407 7.057732,7.1239407 H 5.3363337 L 5.2266263,7.0652672 C 5.0828213,6.9883578 4.9397341,6.8184608 4.9015154,6.679241 4.8791515,6.597776 4.8729661,5.9189367 4.8785217,4.1557513 l 0.0076,-2.4120452 0.080149,-0.1296275 C 5.0782103,1.4330381 5.2522558,1.3294871 5.4676581,1.3157713 L 5.6331012,1.3052366 5.744995,0.84574028 C 5.8625503,0.3629942 5.920539,0.2393155 6.0821261,0.12670458 6.2313019,0.02274311 6.3140429,0.01324153 7.0701777,0.01324153 h 0.7328247 l 0.143603,0.07282839 C 8.1835112,0.20621696 8.2380737,0.30464886 8.3673231,0.84505281 L 8.4787434,1.310911 h 0.1383734 c 0.2571642,0 0.500839,0.1742659 0.5891565,0.4213399 0.024427,0.068336 0.034314,0.3010236 0.035149,0.8272657 l 0.00116,0.732186 0.1787606,0.030462 c 0.7751361,0.132089 1.5709421,0.4767884 2.1865061,0.9470739 0.243799,0.1862604 0.716931,0.654053 0.905172,0.8949563 0.593585,0.7596475 0.956753,1.6174079 1.087628,2.568856 0.05355,0.3893329 0.04032,1.2528895 -0.02448,1.5972209 -0.154434,0.8206173 -0.47313,1.5789323 -0.922636,2.1953453 -0.05531,0.07585 -0.100565,0.143606 -0.100565,0.150573 0,0.007 0.288996,0.01641 0.642214,0.02099 l 0.642214,0.0083 0.122924,0.07226 c 0.40977,0.240889 0.415752,0.841969 0.01087,1.092292 l -0.129636,0.08015 -5.8161777,0.0068 -5.816177,0.0068 z M 8.0179444,4.2209399 8.0247659,2.5891253 7.9186409,2.574891 C 7.7628271,2.553992 7.5814741,2.4365833 7.4954267,2.3009006 7.4460104,2.2229794 7.3926213,2.0638645 7.337343,1.8297659 7.2914359,1.6353533 7.2417977,1.4325465 7.227036,1.3790842 L 7.2001968,1.28188 7.0532402,1.2897748 6.9062839,1.2976695 6.7937116,1.7543527 C 6.6688205,2.2610109 6.6080673,2.3818495 6.4239984,2.489713 6.3647134,2.524454 6.2655588,2.560976 6.2036547,2.570873 l -0.112553,0.017994 v 1.620909 c 0,0.8915 0.00809,1.6290021 0.017985,1.6388938 0.00989,0.00989 0.4418964,0.014857 0.9600106,0.011035 l 0.9420259,-0.00695 z"
       id="path1100"
       transform="scale(0.03)" />
    <path
       style="fill:none;fill-opacity:1;stroke-width:0.0511917;stroke-opacity:0.971564;stop-color:#000000"
       d="M 5.8649136,9.007763 C 5.6304101,8.8985639 5.5084746,8.7039721 5.5084746,8.4389366 c 0,-0.2726928 0.1327231,-0.4817851 0.3708382,-0.5842194 0.129955,-0.055905 0.1566431,-0.056998 1.2139116,-0.049689 l 1.0810354,0.00747 0.1295959,0.080149 c 0.4273702,0.2643093 0.3967182,0.9055564 -0.053303,1.1151137 -0.1330792,0.06197 -0.1368186,0.062164 -1.1928196,0.062164 -1.056001,0 -1.0597406,-1.96e-4 -1.1928195,-0.062164 z"
       id="path1102"
       transform="scale(0.03)" />
    <path
       style="fill:none;fill-opacity:0.368627;stroke:none;stroke-width:0.0511917;stroke-opacity:0.971564;stop-color:#000000"
       d="M 4.7801907,11.012508 C 4.5469464,10.958555 4.405393,10.857141 4.3093428,10.675177 c -0.042719,-0.08093 -0.05744,-0.155994 -0.058027,-0.295898 -6.846e-4,-0.163163 0.00959,-0.204244 0.079289,-0.316977 C 4.3746468,9.991066 4.462074,9.8966615 4.5248882,9.852514 L 4.6390959,9.772246 H 7.055327 9.4715582 L 9.581951,9.8453 c 0.1431763,0.09475 0.2363811,0.238338 0.2753723,0.42423 0.026521,0.12644 0.024539,0.170499 -0.013021,0.289385 -0.056947,0.180254 -0.1718607,0.318076 -0.3302352,0.396069 l -0.1258265,0.06197 -2.2775424,0.0039 c -1.2526483,0.0021 -2.3013771,-0.0016 -2.3305085,-0.0083 z"
       id="path1104"
       transform="scale(0.03)" />
    <path
       style="fill:#ffffff;stroke-width:0.0264831"
       d="m 0.84728618,16.010743 c -0.1969914,-0.05992 -0.38506675,-0.224665 -0.48270665,-0.422823 -0.0853019,-0.173118 -0.0851328,-0.494585 3.5162e-4,-0.668092 0.0817054,-0.165836 0.22550762,-0.308147 0.38768392,-0.383663 l 0.13456713,-0.06266 5.2443506,-2.65e-4 5.2443512,-2.65e-4 0.224399,-0.176122 C 12.901692,13.27543 13.595879,11.629819 13.425545,9.9699605 13.278573,8.5377572 12.541008,7.2767572 11.37143,6.4580853 11.104491,6.2712474 10.542927,5.9923787 10.234474,5.8934926 9.9899828,5.8151126 9.6662063,5.7335805 9.5994362,5.7335805 c -0.031197,0 -0.038317,0.2014123 -0.044702,1.2645657 l -0.00759,1.2645657 -0.07389,0.1504661 C 9.3895371,8.583647 9.2612283,8.7080487 9.085032,8.7895747 8.9656917,8.8447934 8.9439145,8.845339 6.8591102,8.845339 4.7743059,8.845339 4.7525286,8.8447934 4.6331883,8.7895747 4.4569921,8.7080487 4.3286833,8.583647 4.2449706,8.413178 L 4.1710805,8.2627119 V 5.2701271 2.2775424 l 0.07389,-0.1504662 C 4.3756817,1.8609017 4.6103403,1.7103952 4.9303244,1.6875005 L 5.1077942,1.6748025 5.2321006,1.1551979 C 5.300469,0.86941531 5.3800787,0.58481343 5.4090109,0.52274926 5.4379431,0.46068509 5.519897,0.35750479 5.5911306,0.29345971 5.808169,0.09832343 5.8437434,0.09269068 6.8591102,0.09269068 c 1.0074563,0 1.0480479,0.0061554 1.2577293,0.19072437 0.1729531,0.15223932 0.2286486,0.28371419 0.3693054,0.87178285 l 0.1242812,0.5196046 0.1774698,0.012698 C 9.10788,1.7103952 9.3425387,1.8609017 9.4732497,2.1270762 l 0.07389,0.1504662 0.00788,0.9335275 0.00788,0.9335276 h 0.064524 c 0.1314974,0 0.7250773,0.1406022 1.0637403,0.2519698 1.502353,0.4940415 2.795662,1.6077028 3.552059,3.058661 1.119731,2.1479205 0.935095,4.8180327 -0.468791,6.7794117 l -0.161123,0.225106 0.800599,0.01324 0.800599,0.01324 0.119173,0.07057 c 0.271625,0.160855 0.40695,0.39236 0.408234,0.698378 9.83e-4,0.233958 -0.09051,0.437931 -0.265533,0.591994 -0.233846,0.20584 0.45876,0.188576 -7.4633611,0.186036 -3.9046484,-0.0013 -7.12923132,-0.01136 -7.16573982,-0.02247 z M 8.0243644,5.2720048 V 3.2744121 L 7.8789714,3.2442285 C 7.691843,3.2053808 7.5035702,3.0786314 7.3977079,2.9202307 7.3307646,2.8200644 7.2861022,2.6805307 7.1751928,2.2250507 L 7.0364317,1.6551907 H 6.8591102 6.6817887 l -0.1387612,0.56986 C 6.4321181,2.6805307 6.3874558,2.8200644 6.3205124,2.9202307 6.2146502,3.0786314 6.0263774,3.2053808 5.8392489,3.2442285 l -0.145393,0.030184 v 1.9975927 1.9975927 h 1.1652543 1.1652542 z"
       id="path11134"
       transform="scale(0.03)" />
    <path
       style="fill:#ffffff;stroke-width:0.0264831"
       d="M 5.4376119,11.198688 C 5.376789,11.177136 5.2731811,11.112108 5.2073723,11.05418 4.8512502,10.740709 4.8510159,10.181107 5.2068756,9.8678671 5.421905,9.6785906 5.4134427,9.6795551 6.8591102,9.6795551 c 1.4456673,0 1.4372052,-9.645e-4 1.6522346,0.188312 0.2634595,0.2319069 0.3434775,0.6224939 0.1912643,0.9336069 -0.086588,0.176978 -0.265501,0.341849 -0.4328424,0.398868 -0.1766282,0.06018 -2.6617368,0.05873 -2.8321548,-0.0017 z"
       id="path11136"
       transform="scale(0.03)" />
    <path
       style="fill:#ffffff;stroke-width:0.0264831"
       d="M 3.9282959,13.603234 C 3.3737625,13.410615 3.2146969,12.747882 3.6163048,12.30335 3.6667758,12.24748 3.7705364,12.173538 3.8468845,12.139024 l 0.1388147,-0.06275 h 2.873411 2.873411 l 0.1388146,0.06275 c 0.1529492,0.06914 0.2900842,0.205162 0.3827612,0.379645 0.04924,0.0927 0.06042,0.155389 0.06042,0.338852 0,0.183464 -0.01118,0.246148 -0.06042,0.338852 -0.09268,0.174484 -0.229812,0.310503 -0.3827612,0.379645 l -0.1388146,0.06275 -2.8336865,0.006 c -2.6663173,0.0056 -2.8417694,0.0032 -2.9705388,-0.04154 z"
       id="path11138"
       transform="scale(0.03)" />
  </g>
</svg>
