<?xml version="1.0" encoding="utf-8"?>
<!-- Generator: Adobe Illustrator 25.2.1, SVG Export Plug-In . SVG Version: 6.00 Build 0)  -->
<svg version="1.1" xmlns="http://www.w3.org/2000/svg" xmlns:xlink="http://www.w3.org/1999/xlink" x="0px" y="0px"
	 viewBox="0 0 64 64" enable-background="new 0 0 64 64" xml:space="preserve">
<g id="Layer_1">
</g>
<g id="Layer_2">
</g>
<g id="Layer_3">
</g>
<g id="Layer_4">
</g>
<g id="Layer_5">
</g>
<g id="Layer_6">
</g>
<g id="Layer_8">
</g>
<g id="Layer_9">
</g>
<g id="Layer_10">
</g>
<g id="Layer_11">
</g>
<g id="Layer_12">
</g>
<g id="Layer_13">
</g>
<g id="Layer_14">
	<g>
		<path d="M36,30h11c0.3,0,0.5-0.1,0.7-0.3l2.7-2.7h5.7c0.4,1.7,2,3,3.9,3c2.2,0,4-1.8,4-4s-1.8-4-4-4c-1.9,0-3.4,1.3-3.9,3H50
			c-0.3,0-0.5,0.1-0.7,0.3L46.6,28H36v-4h2.1c0.4,1.7,2,3,3.9,3c2.2,0,4-1.8,4-4s-1.8-4-4-4c-1.9,0-3.4,1.3-3.9,3H36v-4h12
			c0.3,0,0.5-0.1,0.7-0.3l1.7-1.7h1.7c0.4,1.7,2,3,3.9,3c2.2,0,4-1.8,4-4s-1.8-4-4-4c-1.9,0-3.4,1.3-3.9,3H50
			c-0.3,0-0.5,0.1-0.7,0.3L47.6,16H36v-4h11c0.3,0,0.5-0.1,0.7-0.3L50,9.4c0.6,0.4,1.3,0.6,2,0.6c2.2,0,4-1.8,4-4s-1.8-4-4-4
			s-4,1.8-4,4c0,0.7,0.2,1.4,0.6,2l-2,2H36c0-5.5-4.5-10-10-10c-3.2,0-6.1,1.5-8,4c0,0,0,0,0,0C12.5,4,8,8.5,8,14c0,0,0,0,0,0
			c-2.5,1.9-4,4.8-4,8c0,0.1,0,0.1,0,0.2c-2.6,2.6-4,6.1-4,9.8s1.4,7.1,4,9.8c0,0.1,0,0.1,0,0.2c0,3.2,1.5,6.1,4,8c0,0,0,0,0,0
			c0,5.5,4.5,10,10,10c0,0,0,0,0,0c1.9,2.5,4.8,4,8,4c5.5,0,10-4.5,10-10h8.6l2,2c-0.4,0.6-0.6,1.3-0.6,2c0,2.2,1.8,4,4,4s4-1.8,4-4
			s-1.8-4-4-4c-0.7,0-1.4,0.2-2,0.6l-2.3-2.3C45.5,52.1,45.3,52,45,52h-9v-4h7.6l1.7,1.7c0.2,0.2,0.4,0.3,0.7,0.3h8.1
			c0.4,1.7,2,3,3.9,3c2.2,0,4-1.8,4-4s-1.8-4-4-4c-1.9,0-3.4,1.3-3.9,3h-7.7l-1.7-1.7C44.5,46.1,44.3,46,44,46h-8v-4h15
			c0.3,0,0.5-0.1,0.7-0.3l2.3-2.3c0.6,0.4,1.3,0.6,2,0.6c2.2,0,4-1.8,4-4s-1.8-4-4-4s-4,1.8-4,4c0,0.7,0.2,1.4,0.6,2l-2,2H36v-4h6.1
			c0.4,1.7,2,3,3.9,3c2.2,0,4-1.8,4-4s-1.8-4-4-4c-1.9,0-3.4,1.3-3.9,3H36V30z M60,24c1.1,0,2,0.9,2,2s-0.9,2-2,2s-2-0.9-2-2
			S58.9,24,60,24z M42,21c1.1,0,2,0.9,2,2s-0.9,2-2,2s-2-0.9-2-2S40.9,21,42,21z M56,13c1.1,0,2,0.9,2,2s-0.9,2-2,2s-2-0.9-2-2
			S54.9,13,56,13z M52,4c1.1,0,2,0.9,2,2s-0.9,2-2,2s-2-0.9-2-2S50.9,4,52,4z M52,58c0,1.1-0.9,2-2,2s-2-0.9-2-2s0.9-2,2-2
			S52,56.9,52,58z M58,47c1.1,0,2,0.9,2,2s-0.9,2-2,2s-2-0.9-2-2S56.9,47,58,47z M56,34c1.1,0,2,0.9,2,2s-0.9,2-2,2s-2-0.9-2-2
			S54.9,34,56,34z M46,33c1.1,0,2,0.9,2,2s-0.9,2-2,2s-2-0.9-2-2S44.9,33,46,33z M34,54c0,4.4-3.6,8-8,8c-2.7,0-5.2-1.3-6.7-3.6
			c0,0,0,0,0,0c-0.7-1.1-1.1-2.3-1.3-3.5C18,54.3,17.5,54,16.9,54c-0.5,0.1-0.9,0.6-0.9,1.1c0.1,1,0.4,1.9,0.7,2.8
			C13,57.3,10,54,10,50c0-0.1,0-0.5,0-0.5c0.1-1.1,0.4-2.2,0.9-3.2c0.3-0.5,0.1-1.1-0.4-1.3c-0.5-0.3-1.1-0.1-1.3,0.4
			c-0.4,0.7-0.6,1.4-0.8,2.2C6.8,46.1,6,44.1,6,42c0-0.1,0-0.6,0-0.6c0.1-1,0.3-2,0.8-3c0.2-0.5,0-1.1-0.5-1.3
			c-0.5-0.2-1.1,0-1.3,0.5c-0.3,0.5-0.5,1.1-0.6,1.6C2.9,37.1,2,34.6,2,32s0.9-5.1,2.4-7.2c0.2,0.6,0.4,1.1,0.6,1.6
			C5.2,26.8,5.6,27,5.9,27c0.1,0,0.3,0,0.4-0.1c0.5-0.2,0.7-0.8,0.5-1.3c-0.5-0.9-0.7-1.9-0.8-3c0,0,0,0,0,0l0-0.1
			c0-0.1,0-0.3,0-0.4c0-2.1,0.8-4.1,2.3-5.6c0.2,0.8,0.5,1.5,0.8,2.2c0.2,0.3,0.5,0.5,0.9,0.5c0.2,0,0.3,0,0.5-0.1
			c0.5-0.3,0.7-0.9,0.4-1.3c-0.5-1-0.8-2-0.9-3.2c0,0,0,0,0-0.1l0-0.1c0-0.1,0-0.2,0-0.3c0-4,3-7.3,6.8-7.9
			c-0.4,0.9-0.6,1.8-0.7,2.8c-0.1,0.5,0.3,1,0.9,1.1c0,0,0.1,0,0.1,0c0.5,0,0.9-0.4,1-0.9c0.1-1.3,0.6-2.5,1.3-3.5c0,0,0,0,0,0
			C20.8,3.3,23.3,2,26,2c4.4,0,8,3.6,8,8V54z"/>
		<path d="M22,16c2.8,0,5-2.2,5-5c0-0.6-0.4-1-1-1s-1,0.4-1,1c0,1.7-1.3,3-3,3c-0.6,0-1,0.4-1,1S21.4,16,22,16z"/>
		<path d="M9,31c-0.6,0-1,0.4-1,1s0.4,1,1,1c2.2,0,4,1.8,4,4c0,0.6,0.4,1,1,1s1-0.4,1-1C15,33.7,12.3,31,9,31z"/>
		<path d="M26,47c-0.6,0-1,0.4-1,1s0.4,1,1,1c1.1,0,2,0.9,2,2c0,0.6,0.4,1,1,1s1-0.4,1-1C30,48.8,28.2,47,26,47z"/>
		<path d="M26,21c-0.6,0-1,0.4-1,1c0,2.2,1.8,4,4,4c0.6,0,1-0.4,1-1s-0.4-1-1-1c-1.1,0-2-0.9-2-2C27,21.4,26.6,21,26,21z"/>
		<path d="M30.6,33.4c-2.2,0-4,1.8-4,4c0,0.6,0.4,1,1,1s1-0.4,1-1c0-1.1,0.9-2,2-2c0.6,0,1-0.4,1-1S31.1,33.4,30.6,33.4z"/>
		<path d="M19,25c0-2.2-1.8-4-4-4c-0.6,0-1,0.4-1,1s0.4,1,1,1c1.1,0,2,0.9,2,2c0,0.6,0.4,1,1,1S19,25.6,19,25z"/>
		<path d="M22,42c-2.2,0-4,1.8-4,4c0,0.6,0.4,1,1,1s1-0.4,1-1c0-1.1,0.9-2,2-2c0.6,0,1-0.4,1-1S22.6,42,22,42z"/>
	</g>
</g>
<g id="Layer_15">
</g>
<g id="Layer_16">
</g>
<g id="Layer_17">
</g>
<g id="Layer_18">
</g>
<g id="Layer_19">
</g>
<g id="Layer_20">
</g>
<g id="Layer_21">
</g>
<g id="Layer_22">
</g>
<g id="Layer_23">
</g>
<g id="Layer_24">
</g>
<g id="Layer_25">
</g>
<g id="Layer_26">
</g>
<g id="Layer_27">
</g>
<g id="Layer_28">
</g>
<g id="Layer_29">
</g>
<g id="Layer_30">
</g>
<g id="Layer_31">
</g>
<g id="Layer_32">
</g>
</svg>
