<?xml version="1.0" encoding="UTF-8" standalone="no"?>
<!-- Uploaded to: SVG Repo, www.svgrepo.com, Generator: SVG Repo Mixer Tools -->

<svg
   width="16"
   height="16"
   viewBox="0 0 0.48 0.48"
   fill="none"
   version="1.1"
   id="svg116"
   sodipodi:docname="data_management_icon_left.svg"
   inkscape:version="1.2.2 (732a01da63, 2022-12-09)"
   xmlns:inkscape="http://www.inkscape.org/namespaces/inkscape"
   xmlns:sodipodi="http://sodipodi.sourceforge.net/DTD/sodipodi-0.dtd"
   xmlns="http://www.w3.org/2000/svg"
   xmlns:svg="http://www.w3.org/2000/svg">
  <defs
     id="defs120" />
  <sodipodi:namedview
     id="namedview118"
     pagecolor="#ffffff"
     bordercolor="#000000"
     borderopacity="0.25"
     inkscape:showpageshadow="2"
     inkscape:pageopacity="0.0"
     inkscape:pagecheckerboard="0"
     inkscape:deskcolor="#d1d1d1"
     showgrid="false"
     inkscape:zoom="22.627417"
     inkscape:cx="14.782951"
     inkscape:cy="10.208854"
     inkscape:window-width="1920"
     inkscape:window-height="1017"
     inkscape:window-x="-8"
     inkscape:window-y="-8"
     inkscape:window-maximized="1"
     inkscape:current-layer="svg116" />
  <path
     d="m 0.16881237,0.26413957 c 0,0.0524199 0.0424965,0.0949167 0.0949167,0.0949167 0.0262113,0 0.0499406,-0.0106236 0.0671156,-0.0278014 M 0.16881237,0.26413957 H 0.07389559 m 0.09491678,0 c 0,-0.0368276 0.0209739,-0.0687553 0.0516277,-0.084493 m -0.14654445,0.084493 c 0,0.0131057 -0.01062413,0.0237292 -0.02372924,0.0237292 -0.01310511,0 -0.02372924,-0.0106236 -0.02372924,-0.0237292 0,-0.0131057 0.01062413,-0.0237292 0.02372924,-0.0237292 0.01310511,0 0.02372924,0.0106236 0.02372924,0.0237292 z M 0.41305446,0.11481442 c -0.004298,-0.004292 -0.00695,-0.0102263 -0.00695,-0.01677945 0,-0.01310511 0.0106236,-0.02372924 0.0237292,-0.02372924 0.0131057,0 0.0237292,0.01062413 0.0237292,0.02372924 0,0.01310511 -0.0106236,0.02372924 -0.0237292,0.02372924 -0.006551,0 -0.012484,-0.002654 -0.0167792,-0.00695 z m 0,0 -0.0822097,0.0822095 M 0.17762749,0.07261466 c 0.008741,-0.003501 0.0149139,-0.01204753 0.0149139,-0.02203766 0,-0.01310511 -0.0106241,-0.02372924 -0.0237292,-0.02372924 -0.0131051,0 -0.0237292,0.01062413 -0.0237292,0.02372924 0,0.01310511 0.0106241,0.02372924 0.0237292,0.02372924 0.003114,0 0.00609,-6.0033e-4 0.008815,-0.0016888 z m 0,0 0.0428124,0.10703191 m 0.1104048,0.15160864 c 0.0171778,-0.017175 0.0278014,-0.0409042 0.0278014,-0.0671156 0,-0.0262113 -0.0106236,-0.0499406 -0.0278014,-0.0671156 m 0,0.13423127 0.0822097,0.0822097 m 0,0 c -0.004298,0.004298 -0.00695,0.0102275 -0.00695,0.0167789 0,0.0131057 0.0106236,0.0237292 0.0237292,0.0237292 0.0131057,0 0.0237292,-0.0106236 0.0237292,-0.0237292 0,-0.0131057 -0.0106236,-0.0237292 -0.0237292,-0.0237292 -0.006551,0 -0.012484,0.002654 -0.0167792,0.00695 z m -0.0822097,-0.216441 c -0.017175,-0.0171773 -0.0409042,-0.0278014 -0.0671156,-0.0278014 -0.0155951,0 -0.0303093,0.003759 -0.0432893,0.0104238"
     stroke="#000000"
     stroke-width="0.0474584"
     stroke-linecap="round"
     stroke-linejoin="round"
     id="path114"
     style="fill:#ffffff;stroke:#c3ccdf;stroke-opacity:1" />
  <path
     style="fill:#ffffff;stroke-width:0.0422405"
     d="m 13.936397,15.848491 c -0.455556,-0.129161 -0.888779,-0.517982 -1.058689,-0.950181 -0.07473,-0.1901 -0.09409,-0.322092 -0.09189,-0.626509 l 0.0028,-0.38567 -0.898638,-0.897908 -0.898637,-0.897909 -0.437359,0.215533 C 9.8890501,12.633522 9.5336601,12.713865 8.7649126,12.710299 8.2025747,12.707693 8.0885421,12.694477 7.7511394,12.592821 6.4038256,12.186888 5.3973165,11.192483 5.0203251,9.8948485 l -0.095105,-0.3273643 -0.9525102,0.00258 -0.9525103,0.00258 -0.128263,0.176941 C 2.5846427,10.173505 1.9649229,10.427136 1.4513632,10.339166 1.3036928,10.313871 1.0925517,10.249509 0.9821608,10.19614 0.70872063,10.063942 0.39835478,9.7429625 0.26139172,9.4507225 0.16306792,9.2409276 0.14784192,9.1545119 0.14784192,8.8062661 c 0,-0.3692944 0.0113502,-0.4252289 0.13883402,-0.6841854 C 0.44834421,7.7936858 0.71351915,7.5372594 1.0560137,7.3781245 1.249084,7.2884174 1.3527185,7.2697733 1.6693899,7.267777 c 0.347813,-0.00219 0.4056075,0.00969 0.6625354,0.1361704 0.257948,0.1269878 0.6671536,0.498196 0.6671536,0.6052049 0,0.020975 0.4259282,0.037526 0.9609725,0.037342 L 4.9210239,8.0461558 5.0612393,7.6057601 C 5.2543411,6.9992555 5.5483911,6.5158779 6.008718,6.0482332 6.2120007,5.8417192 6.3783228,5.6605803 6.3783228,5.6457028 c 0,-0.014878 -0.2138427,-0.5632866 -0.4752061,-1.2186868 L 5.4279105,3.2353867 5.227316,3.1869522 C 4.8266674,3.0902138 4.4411848,2.7709649 4.2341484,2.3644317 3.8639522,1.6375201 4.160441,0.7143417 4.8887652,0.32614902 5.6823692,-0.09683761 6.6618296,0.23144333 7.0383665,1.0466206 7.1439932,1.2752952 7.159773,1.3595271 7.159773,1.6946894 c 0,0.3604346 -0.00995,0.4046314 -0.1546177,0.6865926 L 6.8505371,2.6826422 7.3099166,3.8285109 c 0.2526585,0.6302278 0.4647985,1.1509917 0.4714218,1.157253 0.00662,0.00626 0.1546047,-0.016773 0.3288469,-0.051188 0.2230305,-0.044051 0.4730937,-0.05638 0.844811,-0.041653 0.6357105,0.025186 1.0949677,0.146364 1.6592407,0.4377997 l 0.376111,0.1942537 0.907222,-0.9039038 0.907223,-0.9039038 -0.02649,-0.2456806 c -0.07313,-0.6783305 0.298654,-1.3273779 0.928753,-1.6213725 0.219992,-0.1026447 0.303621,-0.1180233 0.633608,-0.116515 0.330682,0.00151 0.413034,0.017624 0.632687,0.123789 0.320592,0.1549512 0.605083,0.4387959 0.763802,0.7620639 0.111462,0.2270204 0.124016,0.2939742 0.122654,0.6541894 -0.0013,0.3507877 -0.0163,0.4317857 -0.118989,0.6436612 -0.155479,0.3207944 -0.449979,0.6079634 -0.787545,0.7679415 -0.251405,0.1191449 -0.309202,0.1297604 -0.681972,0.1252559 l -0.407288,-0.00492 -0.897901,0.8986301 -0.897901,0.8986305 0.194253,0.3761111 c 0.10684,0.2068613 0.246007,0.546014 0.309261,0.7536728 0.103846,0.3409218 0.115286,0.4431473 0.117885,1.05341 0.0034,0.8044987 -0.06214,1.0943196 -0.40474,1.789057 l -0.215678,0.43736 0.903413,0.90491 0.903413,0.90491 0.274564,-0.02575 c 0.902578,-0.08466 1.669675,0.565506 1.722194,1.459666 0.01437,0.244714 -6.29e-4,0.371284 -0.06593,0.556217 -0.166671,0.472036 -0.513785,0.83702 -0.938179,0.986479 -0.262818,0.09256 -0.698948,0.115765 -0.932276,0.04961 z m 0.44651,-1.507825 c 0.01436,-0.02323 0.006,-0.04224 -0.01863,-0.04224 -0.0246,0 -0.04473,0.01901 -0.04473,0.04224 0,0.02323 0.0084,0.04224 0.01863,0.04224 0.01025,0 0.03038,-0.01901 0.04473,-0.04224 z M 9.4618829,11.103158 c 0.8236291,-0.229544 1.4877381,-0.950147 1.6683161,-1.8102373 0.07828,-0.3728252 0.07828,-0.5987074 0,-0.9715326 C 10.948016,7.453657 10.30071,6.7560336 9.4407626,6.5006257 9.100395,6.3995352 8.4711139,6.3995246 8.1331097,6.5006042 7.1934395,6.7816102 6.5446091,7.5458377 6.4229225,8.5149558 6.2093378,10.215953 7.7961459,11.567395 9.4618829,11.103158 Z M 1.6896219,8.8071544 c 0,-0.023232 -0.019008,-0.042241 -0.04224,-0.042241 -0.023232,0 -0.042241,0.019008 -0.042241,0.042241 0,0.023232 0.019008,0.042241 0.042241,0.042241 0.023232,0 0.04224,-0.019008 0.04224,-0.042241 z M 5.6602335,1.6685017 c 0,-0.023232 -0.00838,-0.042241 -0.018627,-0.042241 -0.010245,0 -0.030375,0.019008 -0.044734,0.042241 -0.014358,0.023232 -0.00598,0.042241 0.018627,0.042241 0.024604,0 0.044734,-0.019008 0.044734,-0.042241 z"
     id="path258"
     transform="scale(0.03)" />
  <path
     style="fill:#c3ccdf;fill-opacity:1;stroke:#c3ccdf;stroke-width:0.0422405;stroke-opacity:1"
     d="M 13.859536,15.80182 C 13.599991,15.704946 13.25433,15.445679 13.101019,15.232885 12.878845,14.92451 12.820006,14.726536 12.820006,14.287363 v -0.389518 l -0.913097,-0.913806 -0.913099,-0.913806 -0.470279,0.223235 c -0.258654,0.12278 -0.5843299,0.254616 -0.7237237,0.29297 -0.3419499,0.09409 -1.3142742,0.132935 -1.6927009,0.06763 C 7.7477306,12.592052 7.1555303,12.359969 6.7643799,12.127853 6.4037787,11.913866 5.8651635,11.415607 5.6140709,11.063732 5.389246,10.748669 5.1238204,10.195579 5.022721,9.8314877 L 4.9494138,9.5674842 H 3.9685443 c -0.9704447,0 -0.9815364,0.00101 -1.0436203,0.095041 C 2.6662506,10.054307 2.1500016,10.327814 1.6691789,10.327814 1.1166851,10.327814 0.53924086,9.9634771 0.29253185,9.4592221 0.19511963,9.2601188 0.18036977,9.1766802 0.17910635,8.8175848 0.17780932,8.4489288 0.19037174,8.3788403 0.29664751,8.1617965 0.43114378,7.8871193 0.75885433,7.5548163 1.0379928,7.4100617 1.3181113,7.2647995 1.9167456,7.2428715 2.1985999,7.3675492 2.4594714,7.4829449 2.8326098,7.7699335 2.9248927,7.9261559 l 0.071281,0.1206686 h 0.974839 0.9748388 L 5.0649603,7.6772197 C 5.2859142,6.9915808 5.5004227,6.6464916 6.1593487,5.9166307 L 6.4050205,5.6445116 5.9233313,4.4311332 5.4416425,3.2177545 5.2522696,3.1696709 C 4.8108352,3.0575862 4.3647193,2.6575705 4.2000071,2.2261458 4.0767378,1.9032711 4.0774169,1.4804724 4.2017338,1.1511961 4.3139284,0.85402727 4.6469018,0.47683252 4.9185549,0.33917545 5.6965925,-0.05508593 6.6231414,0.25757454 7.0080314,1.0442614 c 0.102669,0.2098482 0.1178917,0.2908947 0.1190558,0.633872 0.00125,0.3686577 -0.00817,0.4121289 -0.1505651,0.6948922 l -0.1519,0.3016329 0.4716445,1.168962 0.4716444,1.1689619 0.1922574,-0.035219 c 0.1057416,-0.019371 0.4963894,-0.033982 0.8681062,-0.032469 0.805213,0.00328 1.0133179,0.049332 1.6949834,0.3751159 l 0.470008,0.2246276 0.90281,-0.9035401 0.90281,-0.9035397 0.0017,-0.3960273 c 0.0016,-0.3705634 0.01187,-0.4165651 0.159582,-0.7154424 0.183129,-0.3705367 0.389887,-0.570928 0.780618,-0.756581 0.248254,-0.1179563 0.292092,-0.1252627 0.654728,-0.1091233 0.329078,0.014646 0.422812,0.035945 0.611439,0.1389365 0.272446,0.1487561 0.557098,0.4458568 0.702959,0.7337003 0.09605,0.1895418 0.109154,0.266856 0.109154,0.6438647 0,0.4003771 -0.0088,0.4449589 -0.134203,0.6802491 -0.161394,0.302805 -0.431176,0.5524117 -0.773968,0.7160875 -0.223939,0.1069256 -0.300203,0.121017 -0.655097,0.1210466 l -0.401654,3.34e-5 -0.898703,0.8994335 -0.898704,0.899433 0.188342,0.3994638 c 0.354683,0.7522636 0.380046,0.8600674 0.397186,1.6882234 0.01869,0.9028685 -0.02432,1.1238913 -0.356469,1.8320441 l -0.235404,0.501889 0.897402,0.898132 0.897403,0.898131 0.448368,0.01716 c 0.545593,0.02087 0.81607,0.131382 1.121949,0.458392 0.304911,0.325975 0.421966,0.61735 0.423452,1.054067 0.001,0.302752 -0.01653,0.396914 -0.111986,0.600579 -0.148291,0.316388 -0.453749,0.638148 -0.737705,0.777074 -0.284284,0.139087 -0.865697,0.182059 -1.129758,0.0835 z m 0.544491,-1.461154 c 0.01436,-0.02323 -0.0035,-0.04224 -0.03975,-0.04224 -0.03622,0 -0.06585,0.01901 -0.06585,0.04224 0,0.02323 0.01789,0.04224 0.03975,0.04224 0.02186,0 0.0515,-0.01901 0.06585,-0.04224 z M 9.3191943,11.154109 C 10.494091,10.905073 11.368143,9.6603188 11.177732,8.5073318 11.106244,8.0744545 10.988037,7.7696053 10.764595,7.4418756 9.9273222,6.2138166 8.1464615,6.0460236 7.0962428,7.0962428 6.6430444,7.5494408 6.4013148,8.1514311 6.4000674,8.82996 c -0.00166,0.8994454 0.4951986,1.701511 1.3234889,2.136501 0.4252432,0.223323 1.0697482,0.299118 1.595638,0.187648 z M 1.7107422,8.8071544 c 0,-0.023232 -0.028512,-0.042241 -0.063361,-0.042241 -0.034849,0 -0.063361,0.019008 -0.063361,0.042241 0,0.023232 0.028512,0.042241 0.063361,0.042241 0.034848,0 0.063361,-0.019008 0.063361,-0.042241 z M 5.6813538,1.6685017 c 0,-0.023232 -0.017886,-0.042241 -0.039747,-0.042241 -0.021861,0 -0.051496,0.019008 -0.065854,0.042241 -0.014358,0.023232 0.00353,0.042241 0.039747,0.042241 0.03622,0 0.065854,-0.019008 0.065854,-0.042241 z"
     id="path4481"
     transform="scale(0.03)" />
  <path
     style="fill:#c3ccdf;fill-opacity:1;stroke:#c3ccdf;stroke-width:0.00746714;stroke-opacity:1"
     d="m 8.1653226,4.9298708 c 0.00929,-0.00922 0.2101845,-0.028866 0.3541663,-0.03463 0.2301784,-0.00921 0.6458935,0.00616 0.795774,0.029438 0.025714,0.00399 -0.010579,0.0047 -0.097073,0.00189 -0.1943291,-0.00632 -0.7212165,-0.00558 -0.9035245,0.00127 -0.084192,0.00316 -0.1513964,0.00408 -0.1493429,0.00204 z"
     id="path4483"
     transform="scale(0.03)" />
  <path
     style="fill:#c3ccdf;fill-opacity:1;stroke:#c3ccdf;stroke-width:0.00390625;stroke-opacity:1"
     d="m 12.443478,10.222711 c -6.5e-5,-0.0021 0.01066,-0.03024 0.02384,-0.0625 0.08232,-0.2014964 0.13163,-0.3688462 0.161308,-0.5474832 0.03929,-0.2364912 0.04766,-0.5020057 0.03331,-1.0560872 -0.0081,-0.3115371 -0.01934,-0.4730933 -0.04313,-0.6181218 -0.0045,-0.027369 -0.0075,-0.051745 -0.0067,-0.054169 0.0022,-0.0067 0.02886,0.1085414 0.03982,0.1724019 0.02293,0.1335104 0.02884,0.2298477 0.03374,0.5506698 0.005,0.3272906 -1.16e-4,0.5688524 -0.01593,0.7519531 -0.02456,0.2844645 -0.08267,0.5217363 -0.195071,0.7965294 -0.02422,0.05921 -0.03099,0.07371 -0.0312,0.06681 z"
     id="path4485"
     transform="scale(0.03)" />
  <path
     style="fill:#c3ccdf;fill-opacity:1;stroke:#c3ccdf;stroke-width:0.00390625;stroke-opacity:1"
     d=""
     id="path4487"
     transform="scale(0.03)" />
  <path
     style="fill:#c3ccdf;fill-opacity:1;stroke:#c3ccdf;stroke-width:0.00390625;stroke-opacity:1"
     d=""
     id="path4489"
     transform="scale(0.03)" />
  <path
     style="fill:#c3ccdf;fill-opacity:1;stroke:#c3ccdf;stroke-width:0.00390625;stroke-opacity:1"
     d=""
     id="path4491"
     transform="scale(0.03)" />
</svg>
