<?xml version="1.0" encoding="UTF-8" standalone="no"?>
<svg
   width="100"
   height="22"
   viewBox="0 0 26.458333 5.8208334"
   version="1.1"
   id="svg1132"
   inkscape:version="1.2.2 (732a01da63, 2022-12-09)"
   sodipodi:docname="logo_top_white.svg"
   xmlns:inkscape="http://www.inkscape.org/namespaces/inkscape"
   xmlns:sodipodi="http://sodipodi.sourceforge.net/DTD/sodipodi-0.dtd"
   xmlns="http://www.w3.org/2000/svg"
   xmlns:svg="http://www.w3.org/2000/svg"
   xmlns:rdf="http://www.w3.org/1999/02/22-rdf-syntax-ns#"
   xmlns:cc="http://creativecommons.org/ns#"
   xmlns:dc="http://purl.org/dc/elements/1.1/">
  <defs
     id="defs1126">
    <inkscape:path-effect
       effect="fillet_chamfer"
       id="path-effect1836"
       is_visible="true"
       lpeversion="1"
       satellites_param="F,0,0,1,0,0,0,1 @ F,0,1,1,0,0.26458333,0,1 @ F,0,1,1,0,0.26458333,0,1 @ F,0,0,1,0,0,0,1 @ F,0,0,1,0,0,0,1 @ F,0,0,1,0,0,0,1 @ F,0,0,1,0,0,0,1 @ F,0,0,1,0,0,0,1 @ F,0,0,1,0,0,0,1"
       unit="px"
       method="auto"
       mode="F"
       radius="1"
       chamfer_steps="1"
       flexible="false"
       use_knot_distance="true"
       apply_no_radius="true"
       apply_with_radius="true"
       only_selected="true"
       hide_knots="false"
       nodesatellites_param="F,0,0,1,0,0,0,1 @ F,0,1,1,0,0.26458333,0,1 @ F,0,1,1,0,0.26458333,0,1 @ F,0,0,1,0,0,0,1 @ F,0,0,1,0,0,0,1 @ F,0,0,1,0,0,0,1 @ F,0,0,1,0,0,0,1 @ F,0,0,1,0,0,0,1 @ F,0,0,1,0,0,0,1" />
  </defs>
  <sodipodi:namedview
     id="base"
     pagecolor="#ffffff"
     bordercolor="#666666"
     borderopacity="1.0"
     inkscape:pageopacity="0.0"
     inkscape:pageshadow="2"
     inkscape:zoom="4.7556835"
     inkscape:cx="15.455192"
     inkscape:cy="4.100357"
     inkscape:document-units="mm"
     inkscape:current-layer="layer1"
     inkscape:document-rotation="0"
     showgrid="false"
     units="px"
     inkscape:window-width="1728"
     inkscape:window-height="1016"
     inkscape:window-x="-8"
     inkscape:window-y="-8"
     inkscape:window-maximized="1"
     inkscape:showpageshadow="2"
     inkscape:pagecheckerboard="0"
     inkscape:deskcolor="#d1d1d1" />
  <metadata
     id="metadata1129">
    <rdf:RDF>
      <cc:Work
         rdf:about="">
        <dc:format>image/svg+xml</dc:format>
        <dc:type
           rdf:resource="http://purl.org/dc/dcmitype/StillImage" />
      </cc:Work>
    </rdf:RDF>
  </metadata>
  <g
     inkscape:label="Layer 1"
     inkscape:groupmode="layer"
     id="layer1">
    <g
       id="id0:id13:id13"
       transform="matrix(0.02183442,0,0,0.02173476,9.1345333,-1.1648508)"
       style="fill:#ffffff">
      <g
         id="id0:id13:surface981379"
         style="fill:#ffffff">
        <path
           style="fill:#ffffff;fill-opacity:1;fill-rule:nonzero;stroke:none"
           d="m 152.05078,64.378906 c -11.05859,0 -20.07031,8.9375 -20.07031,19.996094 0,3.441406 0.8789,6.8125 2.5625,9.8125 1.09765,0.660156 2.19531,1.390625 3.29687,2.195313 1.97657,1.390625 2.49219,4.101567 1.17188,6.078127 -1.32031,1.97656 -4.10156,2.49219 -6.07813,1.17187 -0.0742,-0.0742 -0.14843,-0.14843 -0.29297,-0.21875 -15.52734,-11.425779 -37.281245,-8.128904 -48.707026,7.39844 -8.203125,11.13281 -9.082031,26.07422 -2.125,38.08594 1.246094,2.125 0.511719,4.76172 -1.539063,6.0039 -2.125,1.2461 -4.761718,0.51172 -6.003906,-1.53906 0,0 0,-0.0742 -0.07422,-0.0742 -0.367187,-0.58594 -0.660156,-1.17187 -0.953125,-1.83203 -1.023437,0.51172 -2.050781,1.02344 -3.003906,1.68359 -10.914062,7.25 -13.84375,21.89844 -6.59375,32.8125 1.539063,2.26954 3.367188,4.25 5.566406,5.85938 6.226563,-3.29688 13.183594,-4.98047 20.214844,-4.98047 2.417969,0 4.394531,1.97656 4.394531,4.39453 0,2.41797 -1.976562,4.39453 -4.394531,4.39453 -19.261719,0.0742 -34.789062,15.7461 -34.71875,35.00782 0.07422,19.11718 15.601563,34.57031 34.71875,34.71875 2.417969,0 4.320313,1.97656 4.320313,4.32031 0,0 0,0 0,0.0742 0,2.41797 -2.050782,4.39453 -4.46875,4.39453 -2.195313,0 -4.394532,-0.14844 -6.519532,-0.4375 v 8.86328 c 0.07422,13.84375 11.351563,25.05078 25.269535,24.97656 13.76953,-0.0742 24.90234,-11.20703 24.97656,-24.97656 0,-2.41797 1.97656,-4.39453 4.39453,-4.39453 2.41797,0 4.39453,1.97656 4.39453,4.39453 0,8.9375 -3.51562,17.42969 -9.8125,23.80469 10.91406,8.35156 26.51563,6.37109 34.86328,-4.53907 3.36719,-4.39453 5.19922,-9.8125 5.19922,-15.38281 l 0.008,-201.996091 c 0,-11.058594 -8.9375,-20.070313 -19.99609,-20.070313 z M 117.69922,114.625 c 7.91016,-2.05078 16.1875,1.17188 20.72656,7.98438 0.0742,0.14843 0.14844,0.21875 0.21875,0.36718 3.51563,0.87891 7.25,-0.21875 9.8125,-2.78125 1.68359,-1.75781 4.46875,-1.83203 6.22656,-0.14843 1.75782,1.68359 1.83203,4.46875 0.14844,6.22656 0,0 0,0 -0.0742,0.0742 -3.4414,3.58984 -8.20312,5.64062 -13.18359,5.71093 0.21875,3.66407 -0.58594,7.25 -2.34375,10.39844 -1.17188,2.125 -3.88281,2.85547 -6.00391,1.68359 -2.125,-1.17187 -2.85547,-3.80859 -1.68359,-5.93359 2.78125,-5.05469 0.95312,-11.35156 -4.10156,-14.0625 -2.34375,-1.24609 -4.98047,-1.61328 -7.54297,-0.95312 -2.34375,0.58593 -4.76172,-0.80469 -5.34766,-3.14844 -0.66015,-2.41797 0.80469,-4.83203 3.14844,-5.41797 z M 97.484375,176 c -1.683594,1.75781 -4.46875,1.83203 -6.226562,0.14844 0,0 0,0 -0.07422,-0.0742 -1.464844,-1.46485 -2.710938,-3.07813 -3.589844,-4.90625 -0.292969,0.14844 -0.660156,0.36719 -0.953125,0.51172 -2.195312,1.09765 -4.835937,0.14843 -5.859375,-2.05078 -1.097656,-2.19532 -0.148437,-4.83594 2.050781,-5.85938 4.394532,-2.19531 6.664063,-7.10547 5.492188,-11.86719 -0.585938,-2.34375 0.804687,-4.76172 3.148437,-5.34765 2.34375,-0.58594 4.761719,0.80468 5.347657,3.14843 1.320312,5.05469 0.4375,10.39844 -2.269532,14.86719 0.4375,1.97656 1.390625,3.8086 2.855469,5.19922 1.691406,1.69141 1.765625,4.47266 0.07813,6.23047 z m 40.359375,79.76172 c -3.36719,2.34375 -7.25,3.95703 -11.35156,4.61328 -3.73438,0.58594 -7.61719,0.4375 -11.35156,-0.58594 -0.14844,6.07813 -2.34375,12.01172 -6.22657,16.69922 -1.53906,1.90625 -4.32031,2.19531 -6.15234,0.66016 -1.90625,-1.53907 -2.19531,-4.32032 -0.66016,-6.15235 0,0 0.0742,-0.0742 0.0742,-0.0742 3.8086,-4.61328 5.19922,-10.83984 3.58985,-16.625 -0.0742,-0.14843 -0.0742,-0.29296 -0.14844,-0.4375 -0.87891,-3.0039 -2.49219,-5.71093 -4.6875,-7.91015 -1.683596,-1.6836 -1.683596,-4.46875 0,-6.22656 1.68359,-1.6836 4.46875,-1.6836 6.22656,0 2.85547,2.85546 5.05469,6.37109 6.44531,10.17968 6.15235,3.14844 13.47657,2.63672 19.1875,-1.32031 1.97656,-1.39062 4.76172,-0.87891 6.15235,1.09766 1.3164,1.90625 0.8789,4.6914 -1.09766,6.08203 z m 22.55469,-53.90625 c -1.39063,1.97656 -4.17578,2.41797 -6.15235,1.02344 -6.51953,-4.6875 -15.67187,-3.22266 -20.35937,3.29687 -2.19531,3.00391 -3.07813,6.73828 -2.63672,10.39844 0.29297,2.41797 -1.39063,4.61328 -3.80859,4.90625 -0.21875,0 -0.36719,0.0742 -0.58594,0.0742 -2.19531,0 -4.02734,-1.61328 -4.32031,-3.8086 -1.32032,-10.2539 4.17578,-20.14062 13.625,-24.3164 2.05078,-4.90625 1.24609,-10.54688 -2.05079,-14.64844 -1.53906,-1.90625 -1.24609,-4.6875 0.66016,-6.15234 1.90625,-1.53907 4.6875,-1.2461 6.15234,0.66015 4.10157,5.125 5.85938,11.64453 4.83594,18.08985 4.90625,0 9.66797,1.53906 13.625,4.39453 1.96875,1.39453 2.41016,4.10547 1.01563,6.08203 z m 0,0"
           id="path156" />
        <path
           style="fill:#ffffff;fill-opacity:1;fill-rule:nonzero;stroke:none"
           d="m 224.78125,183.54687 c -5.85938,-1.90625 -10.98438,-7.76562 -10.98438,-14.72265 0,-6.95703 5.125,-12.81641 10.98438,-14.72266 v -17.87109 h -13.55078 c -2.5625,-0.14844 -4.61328,-2.19531 -4.76172,-4.76172 v -18.67578 h -8.78906 v 76.90625 h 27.10156 z m 0,0"
           id="path158" />
        <path
           style="fill:#ffffff;fill-opacity:1;fill-rule:nonzero;stroke:none"
           d="m 273.48437,132.93359 c 0,3.64063 -2.94921,6.59375 -6.58984,6.59375 -3.64062,0 -6.58984,-2.95312 -6.58984,-6.59375 0,-3.64062 2.94922,-6.58984 6.58984,-6.58984 3.64063,0 6.58984,2.94922 6.58984,6.58984"
           id="path160" />
        <path
           style="fill:#ffffff;fill-opacity:1;fill-rule:nonzero;stroke:none"
           d="m 236.13281,168.82422 c 0,3.64062 -2.95312,6.58984 -6.59375,6.58984 -3.63672,0 -6.58984,-2.94922 -6.58984,-6.58984 0,-3.64063 2.95312,-6.59375 6.58984,-6.59375 3.64063,0 6.59375,2.95312 6.59375,6.59375"
           id="path162" />
        <path
           style="fill:#ffffff;fill-opacity:1;fill-rule:nonzero;stroke:none"
           d="m 234.66797,62.621094 c 0,3.640625 -2.95313,6.59375 -6.59375,6.59375 -3.63672,0 -6.58985,-2.953125 -6.58985,-6.59375 0,-3.640625 2.95313,-6.589844 6.58985,-6.589844 3.64062,0 6.59375,2.949219 6.59375,6.589844"
           id="path164" />
        <path
           style="fill:#ffffff;fill-opacity:1;fill-rule:nonzero;stroke:none"
           d="m 215.25781,108.54297 v 18.89844 h 37.42969 c 3.07812,-7.83594 11.86719,-11.71875 19.70312,-8.64063 7.83594,3.07813 11.71875,11.86719 8.64063,19.70313 -1.75781,4.46875 -5.49219,7.83593 -10.10938,9.15625 v 17.13671 h 13.47657 c 2.125,-0.14843 3.95703,1.46485 4.10156,3.58985 0,0.14844 0,0.29297 0,0.4375 v 21.3125 l 13.55078,5.93359 6.37109,-28.92969 c -7.98437,-2.92968 -12.08593,-11.71875 -9.15625,-19.6289 1.09766,-3.00391 3.07813,-5.56641 5.71094,-7.39844 L 288.9375,117.84766 c -8.20313,2.125 -16.55469,-2.85547 -18.67578,-11.0586 -1.09766,-4.39453 -0.29297,-9.00781 2.34375,-12.671872 l -7.61719,-3.148438 1.75781,11.35156 c 0.36719,2.41797 -1.24609,4.61328 -3.66406,5.05469 -2.41797,0.36719 -4.61328,-1.24609 -5.05469,-3.66406 L 253.41797,73.09375 242.21094,68.625 c -3.29688,7.835938 -12.30469,11.5 -20.14063,8.128906 -3.29687,-1.390625 -6.0039,-3.957031 -7.6914,-7.105468 l -13.03907,8.496093 -3.66406,14.136719 V 104 h 13.55078 c 2.42188,0.004 4.03125,2.12891 4.03125,4.54297 z m 0,0"
           id="path166" />
        <path
           style="fill:#ffffff;fill-opacity:1;fill-rule:nonzero;stroke:none"
           d="m 244.26172,164.79687 h 17.87109 v -17.14062 c -5.19922,-1.75781 -9.08203,-6.07813 -10.32812,-11.42578 h -18.23828 v 17.87109 c 5.1289,1.46485 9.15625,5.56641 10.69531,10.69531 z m 0,0"
           id="path168" />
        <path
           style="fill:#ffffff;fill-opacity:1;fill-rule:nonzero;stroke:none"
           d="m 291.79687,102.90625 c 0,3.64063 -2.95312,6.58984 -6.59375,6.58984 -3.63671,0 -6.58984,-2.94921 -6.58984,-6.58984 0,-3.640625 2.95313,-6.59375 6.58984,-6.59375 3.64063,0 6.59375,2.953125 6.59375,6.59375"
           id="path170" />
        <path
           style="fill:#ffffff;fill-opacity:1;fill-rule:nonzero;stroke:none"
           d="m 320.35937,152.71094 c 0,3.64062 -2.94921,6.58984 -6.58984,6.58984 -3.64062,0 -6.58984,-2.94922 -6.58984,-6.58984 0,-3.64063 2.94922,-6.59375 6.58984,-6.59375 3.64063,0 6.58984,2.95312 6.58984,6.59375"
           id="path172" />
        <path
           style="fill:#ffffff;fill-opacity:1;fill-rule:nonzero;stroke:none"
           d="m 245.65234,246.46094 c 0,3.64062 -2.94922,6.58984 -6.58984,6.58984 -3.64063,0 -6.59375,-2.94922 -6.59375,-6.58984 0,-3.64063 2.95312,-6.59375 6.59375,-6.59375 3.64062,0 6.58984,2.95312 6.58984,6.59375"
           id="path174" />
        <path
           style="fill:#ffffff;fill-opacity:1;fill-rule:nonzero;stroke:none"
           d="m 298.39062,223.02344 c 0,3.64062 -2.95312,6.58984 -6.59375,6.58984 -3.64062,0 -6.59375,-2.94922 -6.59375,-6.58984 0,-3.64063 2.95313,-6.59375 6.59375,-6.59375 3.64063,0 6.59375,2.95312 6.59375,6.59375"
           id="path176" />
        <path
           style="fill:#ffffff;fill-opacity:1;fill-rule:nonzero;stroke:none"
           d="m 312.67187,210.49609 -30.17578,-13.47265 c -1.17187,-0.51172 -2.05078,-1.46485 -2.41797,-2.63672 -0.21875,-0.51172 -0.29296,-1.02344 -0.36718,-1.53906 v -19.26172 h -35.44922 c -1.75781,4.83593 -5.78516,8.49609 -10.69531,9.96093 v 6.15235 h 9.88671 c 1.97657,0 3.73438,1.75781 4.25,3.66406 l 6.44532,25.63281 H 277 c 2.26953,-8.1289 10.62109,-12.89062 18.75,-10.62109 8.12891,2.26953 12.89062,10.62109 10.62109,18.75 -1.46484,5.125 -5.49218,9.15625 -10.62109,10.62109 v 24.17188 c 1.46484,-0.66016 2.85547,-1.46485 4.25,-2.34375 -4.10156,-7.32422 -1.46484,-16.625 5.85937,-20.72656 2.05079,-1.17188 4.39454,-1.83204 6.8125,-1.90625 z m 0,0"
           id="path178" />
        <path
           style="fill:#ffffff;fill-opacity:1;fill-rule:nonzero;stroke:none"
           d="m 291.87109,272.97266 c -3.51562,-0.87891 -7.10547,1.32031 -7.98437,4.83593 -0.14844,0.51172 -0.21875,1.02344 -0.21875,1.53907 0,2.5625 1.46484,4.83593 3.73437,5.93359 0.4375,0.0742 0.87891,0.21875 1.32032,0.4375 3.51562,0.87891 7.10546,-1.32031 7.98437,-4.83594 0.875,-3.51562 -1.32031,-7.03125 -4.83594,-7.91015 z m 0,0"
           id="path180" />
        <path
           style="fill:#ffffff;fill-opacity:1;fill-rule:nonzero;stroke:none"
           d="m 316.625,246.38672 c -0.4375,-0.0742 -0.87891,-0.21875 -1.32031,-0.4375 -3.51563,-0.87891 -7.10547,1.32031 -7.98438,4.83594 -0.8789,3.51562 1.32031,7.10546 4.83594,7.98437 3.51562,0.87891 7.10547,-1.32031 7.98437,-4.83594 0.73438,-3.07812 -0.73046,-6.23047 -3.51562,-7.54687 z m 0,0"
           id="path182" />
        <path
           style="fill:#ffffff;fill-opacity:1;fill-rule:nonzero;stroke:none"
           d="m 274.73047,279.41797 c 0.14844,-7.25 5.19922,-13.47656 12.30469,-15.08985 v -26.58593 c -4.61329,-1.6836 -8.27735,-5.34766 -9.96094,-9.96094 h -26.29297 c -1.97656,0 -3.73438,-1.75781 -4.25,-3.66406 l -6.44531,-25.63282 H 197.75 v 43.94532 h 26.66016 c 2.26953,-8.12891 10.62109,-12.89063 18.75,-10.6211 8.1289,2.26953 12.89062,10.6211 10.62109,18.75 -1.46484,5.125 -5.49219,9.15625 -10.62109,10.6211 l 0.004,7.61718 h 19.41016 c 2.125,-0.14843 3.88281,1.46485 4.02734,3.51563 0,0.14844 0,0.29297 0,0.51172 v 23.36328 c 2.34375,0.51172 4.46875,1.68359 6.07813,3.36719 l 7.32422,-8.71485 c -3.36719,-2.92578 -5.19922,-7.02734 -5.27344,-11.42187 z m 0,0"
           id="path184" />
        <path
           style="fill:#ffffff;fill-opacity:1;fill-rule:nonzero;stroke:none"
           d="M 257.73828,277.58594 H 239.0625 c -2.5625,-0.14844 -4.61328,-2.19532 -4.76172,-4.76172 v -11.64453 c -4.61328,-1.6836 -8.27734,-5.34766 -9.96094,-9.96094 h -26.66015 v 34.13281 l 7.32422,12.89063 c 1.97656,-0.73438 4.02734,-1.09766 6.15234,-1.02344 6.88281,0 12.96484,4.53906 14.79687,11.13281 h 21.46094 c 1.09766,-5.85937 5.19922,-10.54687 10.32813,-12.16015 z m 0,0"
           id="path186" />
        <path
           style="fill:#ffffff;fill-opacity:1;fill-rule:nonzero;stroke:none"
           d="m 269.09375,310.91406 c 0,3.64063 -2.95313,6.58985 -6.59375,6.58985 -3.64063,0 -6.59375,-2.94922 -6.59375,-6.58985 0,-3.64062 2.95312,-6.59375 6.59375,-6.59375 3.64062,0 6.59375,2.95313 6.59375,6.59375"
           id="path188" />
        <path
           style="fill:#ffffff;fill-opacity:1;fill-rule:nonzero;stroke:none"
           d="m 217.82031,312.37891 c 0,3.64062 -2.94922,6.58984 -6.58984,6.58984 -3.64063,0 -6.59375,-2.94922 -6.59375,-6.58984 0,-3.64063 2.95312,-6.59375 6.59375,-6.59375 3.64062,0 6.58984,2.95312 6.58984,6.59375"
           id="path190" />
      </g>
    </g>
  </g>
</svg>
