<?xml version="1.0" encoding="UTF-8" standalone="no"?>
<!-- Generator: Adobe Illustrator 25.2.3, SVG Export Plug-In . SVG Version: 6.00 Build 0)  -->

<svg
   version="1.1"
   x="0px"
   y="0px"
   viewBox="0 0 400 400"
   enable-background="new 0 0 64 64"
   xml:space="preserve"
   id="svg35"
   sodipodi:docname="trainer_black.svg"
   width="400"
   height="400"
   inkscape:version="1.2.2 (732a01da63, 2022-12-09)"
   xmlns:inkscape="http://www.inkscape.org/namespaces/inkscape"
   xmlns:sodipodi="http://sodipodi.sourceforge.net/DTD/sodipodi-0.dtd"
   xmlns="http://www.w3.org/2000/svg"
   xmlns:svg="http://www.w3.org/2000/svg"><defs
   id="defs39" /><sodipodi:namedview
   id="namedview37"
   pagecolor="#ffffff"
   bordercolor="#000000"
   borderopacity="0.25"
   inkscape:showpageshadow="2"
   inkscape:pageopacity="0.0"
   inkscape:pagecheckerboard="0"
   inkscape:deskcolor="#d1d1d1"
   showgrid="false"
   inkscape:zoom="1.6347656"
   inkscape:cx="226.02628"
   inkscape:cy="168.21983"
   inkscape:window-width="1920"
   inkscape:window-height="1017"
   inkscape:window-x="-8"
   inkscape:window-y="-8"
   inkscape:window-maximized="1"
   inkscape:current-layer="svg35" />
<g
   id="Layer_1">
</g>
<g
   id="Layer_2">
</g>
<g
   id="Layer_3">
</g>
<g
   id="Layer_4">
</g>
<g
   id="Layer_5">
</g>
<g
   id="Layer_6">
</g>
<g
   id="Layer_8">
</g>
<g
   id="Layer_9">
</g>
<g
   id="Layer_10">
</g>
<g
   id="Layer_11">
</g>
<g
   id="Layer_12">
</g>
<g
   id="Layer_13">
</g>
<g
   id="Layer_14">
</g>
<g
   id="Layer_15">
</g>
<g
   id="Layer_16">
</g>
<g
   id="Layer_17">
</g>
<g
   id="Layer_18">
</g>
<g
   id="Layer_19">
</g>
<g
   id="Layer_20">
</g>
<g
   id="Layer_21">
</g>
<g
   id="Layer_22">
</g>
<g
   id="Layer_23">
</g>
<g
   id="Layer_24">
</g>
<g
   id="Layer_25">
</g>
<g
   id="Layer_26">
</g>
<g
   id="Layer_27">
</g>
<g
   id="Layer_28">
</g>
<g
   id="Layer_29">
</g>
<g
   id="Layer_30">
</g>
<g
   id="Layer_31">
</g>
<g
   id="Layer_32"
   transform="matrix(6.1361693,0,0,6.1361693,3.6425824,3.6425824)">
	<path
   d="m 36,30 h 11 c 0.3,0 0.5,-0.1 0.7,-0.3 L 50.4,27 h 5.7 c 0.4,1.7 2,3 3.9,3 2.2,0 4,-1.8 4,-4 0,-2.2 -1.8,-4 -4,-4 -1.9,0 -3.4,1.3 -3.9,3 H 50 c -0.3,0 -0.5,0.1 -0.7,0.3 L 46.6,28 H 36 v -4 h 2.1 c 0.4,1.7 2,3 3.9,3 2.2,0 4,-1.8 4,-4 0,-2.2 -1.8,-4 -4,-4 -1.9,0 -3.4,1.3 -3.9,3 H 36 v -4 h 12 c 0.3,0 0.5,-0.1 0.7,-0.3 L 50.4,16 h 1.7 c 0.4,1.7 2,3 3.9,3 2.2,0 4,-1.8 4,-4 0,-2.2 -1.8,-4 -4,-4 -1.9,0 -3.4,1.3 -3.9,3 H 50 c -0.3,0 -0.5,0.1 -0.7,0.3 L 47.6,16 H 36 v -4 h 11 c 0.3,0 0.5,-0.1 0.7,-0.3 L 50,9.4 c 0.6,0.4 1.3,0.6 2,0.6 2.2,0 4,-1.8 4,-4 0,-2.2 -1.8,-4 -4,-4 -2.2,0 -4,1.8 -4,4 0,0.7 0.2,1.4 0.6,2 l -2,2 H 36 C 36,4.5 31.5,0 26,0 22.8,0 19.9,1.5 18,4 18,4 18,4 18,4 12.5,4 8,8.5 8,14 c 0,0 0,0 0,0 -2.5,1.9 -4,4.8 -4,8 0,0.1 0,0.1 0,0.2 -2.6,2.6 -4,6.1 -4,9.8 0,3.7 1.4,7.1 4,9.8 0,0.1 0,0.1 0,0.2 0,3.2 1.5,6.1 4,8 0,0 0,0 0,0 0,5.5 4.5,10 10,10 0,0 0,0 0,0 1.9,2.5 4.8,4 8,4 5.5,0 10,-4.5 10,-10 h 8.6 l 2,2 c -0.4,0.6 -0.6,1.3 -0.6,2 0,2.2 1.8,4 4,4 2.2,0 4,-1.8 4,-4 0,-2.2 -1.8,-4 -4,-4 -0.7,0 -1.4,0.2 -2,0.6 L 45.7,52.3 C 45.5,52.1 45.3,52 45,52 h -9 v -4 h 7.6 l 1.7,1.7 c 0.2,0.2 0.4,0.3 0.7,0.3 h 8.1 c 0.4,1.7 2,3 3.9,3 2.2,0 4,-1.8 4,-4 0,-2.2 -1.8,-4 -4,-4 -1.9,0 -3.4,1.3 -3.9,3 H 46.4 L 44.7,46.3 C 44.5,46.1 44.3,46 44,46 h -8 v -4 h 15 c 0.3,0 0.5,-0.1 0.7,-0.3 L 54,39.4 c 0.6,0.4 1.3,0.6 2,0.6 2.2,0 4,-1.8 4,-4 0,-2.2 -1.8,-4 -4,-4 -2.2,0 -4,1.8 -4,4 0,0.7 0.2,1.4 0.6,2 l -2,2 H 36 v -4 h 6.1 c 0.4,1.7 2,3 3.9,3 2.2,0 4,-1.8 4,-4 0,-2.2 -1.8,-4 -4,-4 -1.9,0 -3.4,1.3 -3.9,3 H 36 Z m -7,-6 c 0.6,0 1,0.4 1,1 0,0.6 -0.4,1 -1,1 -2.2,0 -4,-1.8 -4,-4 0,-0.6 0.4,-1 1,-1 0.6,0 1,0.4 1,1 0,1.1 0.9,2 2,2 z M 22,14 c 1.7,0 3,-1.3 3,-3 0,-0.6 0.4,-1 1,-1 0.6,0 1,0.4 1,1 0,2.8 -2.2,5 -5,5 -0.6,0 -1,-0.4 -1,-1 0,-0.6 0.4,-1 1,-1 z m -8,24 c -0.6,0 -1,-0.4 -1,-1 0,-2.2 -1.8,-4 -4,-4 -0.6,0 -1,-0.4 -1,-1 0,-0.6 0.4,-1 1,-1 3.3,0 6,2.7 6,6 0,0.6 -0.4,1 -1,1 z m 3,-13 c 0,-1.1 -0.9,-2 -2,-2 -0.6,0 -1,-0.4 -1,-1 0,-0.6 0.4,-1 1,-1 2.2,0 4,1.8 4,4 0,0.6 -0.4,1 -1,1 -0.6,0 -1,-0.4 -1,-1 z m 5,19 c -1.1,0 -2,0.9 -2,2 0,0.6 -0.4,1 -1,1 -0.6,0 -1,-0.4 -1,-1 0,-2.2 1.8,-4 4,-4 0.6,0 1,0.4 1,1 0,0.6 -0.4,1 -1,1 z m 7,8 c -0.6,0 -1,-0.4 -1,-1 0,-1.1 -0.9,-2 -2,-2 -0.6,0 -1,-0.4 -1,-1 0,-0.6 0.4,-1 1,-1 2.2,0 4,1.8 4,4 0,0.6 -0.4,1 -1,1 z m 1.6,-16.6 c -1.1,0 -2,0.9 -2,2 0,0.6 -0.4,1 -1,1 -0.6,0 -1,-0.4 -1,-1 0,-2.2 1.8,-4 4,-4 0.6,0 1,0.4 1,1 0,0.6 -0.5,1 -1,1 z"
   id="path32" />
</g>
</svg>
