<?xml version="1.0" encoding="UTF-8" standalone="no"?>
<!-- Uploaded to: SVG Repo, www.svgrepo.com, Generator: SVG Repo Mixer Tools -->

<svg
   width="16"
   height="16"
   viewBox="0 0 0.48 0.48"
   fill="none"
   version="1.1"
   id="svg116"
   sodipodi:docname="data_management_black.svg"
   inkscape:version="1.2.2 (732a01da63, 2022-12-09)"
   xmlns:inkscape="http://www.inkscape.org/namespaces/inkscape"
   xmlns:sodipodi="http://sodipodi.sourceforge.net/DTD/sodipodi-0.dtd"
   xmlns="http://www.w3.org/2000/svg"
   xmlns:svg="http://www.w3.org/2000/svg">
  <defs
     id="defs120" />
  <sodipodi:namedview
     id="namedview118"
     pagecolor="#ffffff"
     bordercolor="#000000"
     borderopacity="0.25"
     inkscape:showpageshadow="2"
     inkscape:pageopacity="0.0"
     inkscape:pagecheckerboard="0"
     inkscape:deskcolor="#d1d1d1"
     showgrid="false"
     inkscape:zoom="23.673935"
     inkscape:cx="6.4839242"
     inkscape:cy="9.5886045"
     inkscape:window-width="1920"
     inkscape:window-height="1017"
     inkscape:window-x="-8"
     inkscape:window-y="-8"
     inkscape:window-maximized="1"
     inkscape:current-layer="svg116" />
  <path
     d="m 0.16881237,0.26413957 c 0,0.0524199 0.0424965,0.0949167 0.0949167,0.0949167 0.0262113,0 0.0499406,-0.0106236 0.0671156,-0.0278014 M 0.16881237,0.26413957 H 0.07389559 m 0.09491678,0 c 0,-0.0368276 0.0209739,-0.0687553 0.0516277,-0.084493 m -0.14654445,0.084493 c 0,0.0131057 -0.01062413,0.0237292 -0.02372924,0.0237292 -0.01310511,0 -0.02372924,-0.0106236 -0.02372924,-0.0237292 0,-0.0131057 0.01062413,-0.0237292 0.02372924,-0.0237292 0.01310511,0 0.02372924,0.0106236 0.02372924,0.0237292 z M 0.41305446,0.11481442 c -0.004298,-0.004292 -0.00695,-0.0102263 -0.00695,-0.01677945 0,-0.01310511 0.0106236,-0.02372924 0.0237292,-0.02372924 0.0131057,0 0.0237292,0.01062413 0.0237292,0.02372924 0,0.01310511 -0.0106236,0.02372924 -0.0237292,0.02372924 -0.006551,0 -0.012484,-0.002654 -0.0167792,-0.00695 z m 0,0 -0.0822097,0.0822095 M 0.17762749,0.07261466 c 0.008741,-0.003501 0.0149139,-0.01204753 0.0149139,-0.02203766 0,-0.01310511 -0.0106241,-0.02372924 -0.0237292,-0.02372924 -0.0131051,0 -0.0237292,0.01062413 -0.0237292,0.02372924 0,0.01310511 0.0106241,0.02372924 0.0237292,0.02372924 0.003114,0 0.00609,-6.0033e-4 0.008815,-0.0016888 z m 0,0 0.0428124,0.10703191 m 0.1104048,0.15160864 c 0.0171778,-0.017175 0.0278014,-0.0409042 0.0278014,-0.0671156 0,-0.0262113 -0.0106236,-0.0499406 -0.0278014,-0.0671156 m 0,0.13423127 0.0822097,0.0822097 m 0,0 c -0.004298,0.004298 -0.00695,0.0102275 -0.00695,0.0167789 0,0.0131057 0.0106236,0.0237292 0.0237292,0.0237292 0.0131057,0 0.0237292,-0.0106236 0.0237292,-0.0237292 0,-0.0131057 -0.0106236,-0.0237292 -0.0237292,-0.0237292 -0.006551,0 -0.012484,0.002654 -0.0167792,0.00695 z m -0.0822097,-0.216441 c -0.017175,-0.0171773 -0.0409042,-0.0278014 -0.0671156,-0.0278014 -0.0155951,0 -0.0303093,0.003759 -0.0432893,0.0104238"
     stroke="#000000"
     stroke-width="0.0474584"
     stroke-linecap="round"
     stroke-linejoin="round"
     id="path114" />
</svg>
