<?xml version="1.0" encoding="UTF-8" standalone="no"?>
<!-- Generator: Adobe Illustrator 25.2.3, SVG Export Plug-In . SVG Version: 6.00 Build 0)  -->

<svg
   version="1.1"
   x="0px"
   y="0px"
   viewBox="0 0 400 400"
   enable-background="new 0 0 64 64"
   xml:space="preserve"
   id="svg35"
   sodipodi:docname="trainer_grey.svg"
   width="400"
   height="400"
   inkscape:version="1.2.2 (732a01da63, 2022-12-09)"
   xmlns:inkscape="http://www.inkscape.org/namespaces/inkscape"
   xmlns:sodipodi="http://sodipodi.sourceforge.net/DTD/sodipodi-0.dtd"
   xmlns="http://www.w3.org/2000/svg"
   xmlns:svg="http://www.w3.org/2000/svg"><defs
   id="defs39" /><sodipodi:namedview
   id="namedview37"
   pagecolor="#ffffff"
   bordercolor="#000000"
   borderopacity="0.25"
   inkscape:showpageshadow="2"
   inkscape:pageopacity="0.0"
   inkscape:pagecheckerboard="0"
   inkscape:deskcolor="#d1d1d1"
   showgrid="false"
   inkscape:zoom="1.6347656"
   inkscape:cx="177.08961"
   inkscape:cy="168.21983"
   inkscape:window-width="1920"
   inkscape:window-height="1017"
   inkscape:window-x="-8"
   inkscape:window-y="-8"
   inkscape:window-maximized="1"
   inkscape:current-layer="svg35" />
<g
   id="Layer_1">
</g>
<g
   id="Layer_2">
</g>
<g
   id="Layer_3">
</g>
<g
   id="Layer_4">
</g>
<g
   id="Layer_5">
</g>
<g
   id="Layer_6">
</g>
<g
   id="Layer_8">
</g>
<g
   id="Layer_9">
</g>
<g
   id="Layer_10">
</g>
<g
   id="Layer_11">
</g>
<g
   id="Layer_12">
</g>
<g
   id="Layer_13">
</g>
<g
   id="Layer_14">
</g>
<g
   id="Layer_15">
</g>
<g
   id="Layer_16">
</g>
<g
   id="Layer_17">
</g>
<g
   id="Layer_18">
</g>
<g
   id="Layer_19">
</g>
<g
   id="Layer_20">
</g>
<g
   id="Layer_21">
</g>
<g
   id="Layer_22">
</g>
<g
   id="Layer_23">
</g>
<g
   id="Layer_24">
</g>
<g
   id="Layer_25">
</g>
<g
   id="Layer_26">
</g>
<g
   id="Layer_27">
</g>
<g
   id="Layer_28">
</g>
<g
   id="Layer_29">
</g>
<g
   id="Layer_30">
</g>
<g
   id="Layer_31">
</g>
<g
   id="Layer_32"
   transform="matrix(6.1361693,0,0,6.1361693,3.6425824,3.6425824)">
	<path
   d="m 36,30 h 11 c 0.3,0 0.5,-0.1 0.7,-0.3 L 50.4,27 h 5.7 c 0.4,1.7 2,3 3.9,3 2.2,0 4,-1.8 4,-4 0,-2.2 -1.8,-4 -4,-4 -1.9,0 -3.4,1.3 -3.9,3 H 50 c -0.3,0 -0.5,0.1 -0.7,0.3 L 46.6,28 H 36 v -4 h 2.1 c 0.4,1.7 2,3 3.9,3 2.2,0 4,-1.8 4,-4 0,-2.2 -1.8,-4 -4,-4 -1.9,0 -3.4,1.3 -3.9,3 H 36 v -4 h 12 c 0.3,0 0.5,-0.1 0.7,-0.3 L 50.4,16 h 1.7 c 0.4,1.7 2,3 3.9,3 2.2,0 4,-1.8 4,-4 0,-2.2 -1.8,-4 -4,-4 -1.9,0 -3.4,1.3 -3.9,3 H 50 c -0.3,0 -0.5,0.1 -0.7,0.3 L 47.6,16 H 36 v -4 h 11 c 0.3,0 0.5,-0.1 0.7,-0.3 L 50,9.4 c 0.6,0.4 1.3,0.6 2,0.6 2.2,0 4,-1.8 4,-4 0,-2.2 -1.8,-4 -4,-4 -2.2,0 -4,1.8 -4,4 0,0.7 0.2,1.4 0.6,2 l -2,2 H 36 C 36,4.5 31.5,0 26,0 22.8,0 19.9,1.5 18,4 18,4 18,4 18,4 12.5,4 8,8.5 8,14 c 0,0 0,0 0,0 -2.5,1.9 -4,4.8 -4,8 0,0.1 0,0.1 0,0.2 -2.6,2.6 -4,6.1 -4,9.8 0,3.7 1.4,7.1 4,9.8 0,0.1 0,0.1 0,0.2 0,3.2 1.5,6.1 4,8 0,0 0,0 0,0 0,5.5 4.5,10 10,10 0,0 0,0 0,0 1.9,2.5 4.8,4 8,4 5.5,0 10,-4.5 10,-10 h 8.6 l 2,2 c -0.4,0.6 -0.6,1.3 -0.6,2 0,2.2 1.8,4 4,4 2.2,0 4,-1.8 4,-4 0,-2.2 -1.8,-4 -4,-4 -0.7,0 -1.4,0.2 -2,0.6 L 45.7,52.3 C 45.5,52.1 45.3,52 45,52 h -9 v -4 h 7.6 l 1.7,1.7 c 0.2,0.2 0.4,0.3 0.7,0.3 h 8.1 c 0.4,1.7 2,3 3.9,3 2.2,0 4,-1.8 4,-4 0,-2.2 -1.8,-4 -4,-4 -1.9,0 -3.4,1.3 -3.9,3 H 46.4 L 44.7,46.3 C 44.5,46.1 44.3,46 44,46 h -8 v -4 h 15 c 0.3,0 0.5,-0.1 0.7,-0.3 L 54,39.4 c 0.6,0.4 1.3,0.6 2,0.6 2.2,0 4,-1.8 4,-4 0,-2.2 -1.8,-4 -4,-4 -2.2,0 -4,1.8 -4,4 0,0.7 0.2,1.4 0.6,2 l -2,2 H 36 v -4 h 6.1 c 0.4,1.7 2,3 3.9,3 2.2,0 4,-1.8 4,-4 0,-2.2 -1.8,-4 -4,-4 -1.9,0 -3.4,1.3 -3.9,3 H 36 Z m -7,-6 c 0.6,0 1,0.4 1,1 0,0.6 -0.4,1 -1,1 -2.2,0 -4,-1.8 -4,-4 0,-0.6 0.4,-1 1,-1 0.6,0 1,0.4 1,1 0,1.1 0.9,2 2,2 z M 22,14 c 1.7,0 3,-1.3 3,-3 0,-0.6 0.4,-1 1,-1 0.6,0 1,0.4 1,1 0,2.8 -2.2,5 -5,5 -0.6,0 -1,-0.4 -1,-1 0,-0.6 0.4,-1 1,-1 z m -8,24 c -0.6,0 -1,-0.4 -1,-1 0,-2.2 -1.8,-4 -4,-4 -0.6,0 -1,-0.4 -1,-1 0,-0.6 0.4,-1 1,-1 3.3,0 6,2.7 6,6 0,0.6 -0.4,1 -1,1 z m 3,-13 c 0,-1.1 -0.9,-2 -2,-2 -0.6,0 -1,-0.4 -1,-1 0,-0.6 0.4,-1 1,-1 2.2,0 4,1.8 4,4 0,0.6 -0.4,1 -1,1 -0.6,0 -1,-0.4 -1,-1 z m 5,19 c -1.1,0 -2,0.9 -2,2 0,0.6 -0.4,1 -1,1 -0.6,0 -1,-0.4 -1,-1 0,-2.2 1.8,-4 4,-4 0.6,0 1,0.4 1,1 0,0.6 -0.4,1 -1,1 z m 7,8 c -0.6,0 -1,-0.4 -1,-1 0,-1.1 -0.9,-2 -2,-2 -0.6,0 -1,-0.4 -1,-1 0,-0.6 0.4,-1 1,-1 2.2,0 4,1.8 4,4 0,0.6 -0.4,1 -1,1 z m 1.6,-16.6 c -1.1,0 -2,0.9 -2,2 0,0.6 -0.4,1 -1,1 -0.6,0 -1,-0.4 -1,-1 0,-2.2 1.8,-4 4,-4 0.6,0 1,0.4 1,1 0,0.6 -0.5,1 -1,1 z"
   id="path32" />
</g>
<path
   style="fill:#c3ccdf;stroke:none;stroke-width:0.611708"
   d="m 154.76225,395.47556 c -13.41122,-1.98656 -26.21582,-8.665 -35.57943,-18.55702 l -4.84929,-5.12293 -4.55984,-0.43039 C 94.420416,369.91607 82.055512,364.11875 71.231226,353.29446 60.412379,342.47561 54.628563,330.14398 53.200002,314.85023 l -0.41675,-4.4616 -5.651774,-5.63159 c -3.108475,-3.09738 -6.829664,-7.38729 -8.269308,-9.53314 -5.673718,-8.4569 -9.370393,-19.35457 -10.1733,-29.99052 -0.402226,-5.3282 -0.480877,-5.54859 -3.013349,-8.44359 -22.3789891,-25.58254 -27.856689,-60.70328 -14.299296,-91.68114 2.942791,-6.72411 8.157437,-14.91839 13.278058,-20.8651 3.398378,-3.94663 3.790161,-4.67846 3.790161,-7.07978 0,-1.473 0.444728,-5.27292 0.988285,-8.44427 2.311264,-13.48495 8.177053,-24.44027 18.278482,-34.13804 l 5.08971,-4.886327 0.434598,-4.780661 C 55.446021,60.598584 71.302723,40.17355 94.409136,31.878683 c 4.456357,-1.599768 13.874674,-3.427064 17.688194,-3.431779 1.68286,-0.0021 2.67366,-0.72263 6.42294,-4.670992 5.40365,-5.690586 9.92842,-9.232821 15.92654,-12.468164 18.8593,-10.1725782 41.33107,-9.6125389 59.97446,1.494677 16.77871,9.996295 28.08541,28.149262 29.5765,47.485224 l 0.37472,4.859304 h 32.80014 32.80014 l 6.04796,-6.07073 6.04795,-6.070729 -1.36709,-3.177877 c -3.57451,-8.309176 -2.22667,-17.89319 3.48036,-24.747569 4.21091,-5.057481 12.16415,-8.869773 18.50421,-8.869773 7.00268,0 15.04586,4.129919 19.3014,9.910671 3.46784,4.710724 4.80668,8.812703 4.75147,14.557668 -0.0999,10.399231 -6.50521,19.17485 -16.57973,22.715234 -4.95722,1.742064 -12.0014,1.370745 -16.6587,-0.878129 l -3.3644,-1.624567 -7.96041,7.939131 -7.96041,7.939131 h -35.01211 -35.01211 v 12.540024 12.540022 h 35.95138 35.95138 l 5.18601,-5.264563 c 2.85231,-2.89551 6.0718,-5.648198 7.15442,-6.117085 1.2738,-0.551681 4.29582,-0.856202 8.56392,-0.862961 l 6.59552,-0.01046 1.48044,-3.418563 c 3.10973,-7.180827 10.42005,-12.863923 18.45055,-14.343597 9.82795,-1.810872 20.8234,3.922336 25.38063,13.233866 4.6767,9.555657 2.69022,20.524713 -5.04119,27.836773 -13.12881,12.41667 -33.36626,7.35468 -39.911,-9.98294 -0.62148,-1.64637 -0.74165,-1.6822 -5.64116,-1.6822 h -5.00616 l -6.17848,6.0112 c -4.48081,4.35949 -6.74415,6.12433 -8.23718,6.42294 -1.13229,0.22648 -18.40279,0.41176 -38.37889,0.41176 h -36.32019 v 12.54003 12.54002 l 6.57586,-1.5e-4 6.57587,-1.4e-4 2.03301,-4.2356 c 2.4582,-5.12144 7.14404,-9.79683 12.1876,-12.16041 3.1241,-1.46406 4.23962,-1.64866 9.94188,-1.6452 5.85706,0.004 6.74629,0.16192 10.09319,1.79755 4.68138,2.28779 9.36473,6.96957 11.66003,11.65614 1.64177,3.35216 1.79755,4.22689 1.79755,10.09319 0,5.68832 -0.1875,6.82299 -1.63941,9.92073 -4.58978,9.79257 -16.07841,15.99549 -25.98512,14.02984 -9.30326,-1.84592 -16.44014,-8.01776 -19.38411,-16.763 -0.3141,-0.93304 -1.22679,-1.07049 -7.10836,-1.07049 h -6.74799 v 12.54002 12.54003 h 32.88698 32.88698 l 9.16033,-9.17563 9.16033,-9.17563 h 19.91822 19.91821 l 0.81802,-2.2939 c 1.22527,-3.43594 4.74002,-8.46111 7.3809,-10.55271 1.28744,-1.01968 3.94725,-2.60655 5.91068,-3.52638 3.14333,-1.47259 4.30074,-1.67241 9.68695,-1.67241 5.36541,0 6.54949,0.20264 9.63602,1.6491 1.93542,0.907 4.98462,3.03528 6.77601,4.72949 9.95657,9.41651 10.15316,24.61507 0.44398,34.32426 -10.83835,10.83835 -28.7394,9.05187 -37.2676,-3.71921 -1.33554,-1.99999 -2.61009,-4.46422 -2.83233,-5.47606 l -0.40407,-1.83971 h -17.83646 -17.83647 l -9.03745,9.0227 -9.03746,9.0227 -35.16589,0.16747 -35.16588,0.16747 v 12.52548 12.52548 h 18.9053 18.90531 l 1.858,-3.97045 c 2.42025,-5.17198 6.88144,-9.61204 12.17934,-12.12169 3.7388,-1.77109 4.66661,-1.95326 9.9479,-1.95326 5.35215,0 6.15672,0.16356 9.92064,2.01672 18.67035,9.19235 18.68315,34.89394 0.0218,43.73339 -3.77894,1.79 -4.65704,1.96104 -9.95571,1.93921 -8.04403,-0.0332 -11.76965,-1.54093 -17.18466,-6.95477 -2.93052,-2.92989 -4.37491,-4.9517 -5.28405,-7.39644 l -1.25113,-3.3644 -19.03136,-0.16164 -19.03136,-0.16164 v 12.54874 12.54874 h 45.10306 45.10305 l 6.21259,-6.19145 6.21259,-6.19144 -1.61433,-3.11011 c -1.43106,-2.75701 -1.61433,-3.80763 -1.61433,-9.25419 0,-5.4872 0.18944,-6.55432 1.77193,-9.98108 2.30594,-4.99335 8.02658,-10.46082 13.02099,-12.44477 2.77497,-1.10231 4.77034,-1.41667 9.06371,-1.42796 4.93092,-0.013 5.93562,0.18853 9.62875,1.93111 10.04073,4.73767 15.87515,15.45742 13.98783,25.70026 -2.87468,15.60145 -19.0579,24.65299 -32.76174,18.32418 l -3.63978,-1.68095 -7.99088,7.97442 -7.99088,7.97444 h -47.24628 -47.24628 v 12.54002 12.54003 h 24.73437 c 15.69229,0 25.34796,0.23328 26.41282,0.63814 0.92315,0.35098 4.19258,3.10367 7.26541,6.11709 l 5.58697,5.47893 23.81861,-0.006 23.81862,-0.006 1.66447,-3.578 c 4.67475,-10.04902 15.46273,-15.97917 25.69386,-14.12391 19.22865,3.48682 27.09873,25.73882 14.07758,39.80322 -9.65414,10.42762 -24.30997,10.93544 -34.60479,1.19903 -2.86282,-2.70755 -6.52527,-8.54658 -6.52527,-10.40323 0,-0.44832 -7.64496,-0.65127 -24.62127,-0.65363 -14.07535,-0.002 -25.5383,-0.25838 -26.76224,-0.5987 -1.46427,-0.40714 -3.97394,-2.43618 -7.94013,-6.41953 l -5.79915,-5.82423 h -23.40993 -23.40993 v 12.84587 12.84588 h 28.89502 28.89503 l 7.96041,7.93808 7.96041,7.93806 3.3644,-1.66805 c 2.99052,-1.4827 4.04416,-1.66738 9.48148,-1.6619 5.51338,0.006 6.47931,0.18296 9.78733,1.79755 15.25722,7.44678 18.70215,27.03263 6.841,38.89378 -9.4599,9.45989 -24.25217,9.52749 -33.68117,0.1539 -7.30918,-7.26622 -9.31739,-17.6274 -5.16617,-26.65436 l 1.34778,-2.93079 -6.06904,-6.09191 -6.06904,-6.0919 h -26.68305 -26.68306 l -0.38496,4.74074 c -0.94648,11.65548 -6.04542,24.31808 -13.53806,33.62005 -13.18441,16.3682 -35.3692,25.21403 -55.68722,22.20438 z m 30.85271,-73.96714 c 2.27419,-1.59823 2.79799,-3.96686 1.95908,-8.85905 -1.85028,-10.78996 -10.2452,-19.05486 -20.88177,-20.55833 -6.44776,-0.91139 -9.78904,1.05491 -9.78904,5.76068 0,4.54866 1.46135,5.90269 7.58617,7.02905 5.94195,1.09272 9.74959,4.88187 10.48596,10.43503 0.67463,5.08755 1.60053,6.4404 5.17279,7.55804 1.36016,0.42555 3.77748,-0.17821 5.46681,-1.36542 z m -60.84763,-30.87009 c 0.95245,-0.95244 1.58462,-2.47919 1.83634,-4.43488 0.8899,-6.91397 4.29777,-10.78984 10.49907,-11.94092 5.30345,-0.98441 6.31311,-1.52569 7.31392,-3.92097 1.16122,-2.77919 0.60973,-5.84173 -1.38908,-7.71389 -1.30922,-1.22626 -2.10085,-1.41524 -5.59995,-1.3368 -7.67488,0.17204 -15.05509,4.30282 -19.41232,10.86529 -2.74722,4.13762 -3.93168,8.06153 -3.93168,13.02502 0,3.33223 0.22079,4.12747 1.50147,5.40815 2.12325,2.12325 7.08153,2.14971 9.18223,0.049 z m 51.33559,-51.73989 c 1.88639,-0.7172 3.43352,-3.55111 3.43352,-6.28922 0,-5.40982 5.04973,-10.5818 11.01469,-11.28135 5.96085,-0.69908 8.88872,-5.20668 6.44785,-9.92681 -0.48879,-0.94522 -1.73872,-2.07067 -2.77762,-2.50099 -4.34153,-1.79832 -14.03152,0.98396 -19.18468,5.50849 -4.97906,4.37168 -8.34612,11.66098 -8.34612,18.06842 0,2.97627 0.23687,3.66762 1.78807,5.21882 1.90986,1.90986 4.63399,2.33956 7.62429,1.20264 z m -82.077069,-3.73102 1.86962,-1.86962 -0.313305,-5.62381 c -0.991812,-17.8031 -15.608439,-32.44352 -33.830083,-33.88514 -5.423836,-0.42911 -7.785445,0.59978 -8.861674,3.86079 -0.563504,1.70743 -0.56994,2.78426 -0.02747,4.59489 0.866254,2.8913 2.679298,3.9205 7.696194,4.36886 11.816259,1.056 20.793852,9.90546 22.311348,21.9929 0.849712,6.76832 2.120995,8.30404 6.944787,8.38935 1.826978,0.0323 2.751459,-0.3691 4.210579,-1.82822 z m 24.383779,-73.10453 c 1.74198,-1.57647 2.30062,-4.4262 1.71175,-8.73205 -1.54859,-11.32359 -11.11664,-20.20464 -22.405899,-20.79715 -5.40045,-0.28344 -7.137867,0.60938 -8.093723,4.15915 -1.262872,4.68993 1.969414,8.58792 7.12126,8.58792 5.095662,0 10.107402,5.13203 10.810682,11.07018 0.42054,3.55077 1.67748,5.84996 3.65998,6.69481 1.89428,0.80724 5.80869,0.2726 7.19595,-0.98286 z m 67.77467,-0.51873 c 1.31516,-1.31515 1.6102,-2.17779 1.6102,-4.7078 0,-3.98097 -1.75465,-5.68916 -6.41029,-6.24055 -6.45298,-0.76426 -10.72062,-4.81252 -11.57428,-10.97931 -0.77799,-5.62019 -2.28686,-7.18161 -6.93992,-7.18161 -4.70092,0 -6.39189,2.6912 -5.79903,9.22927 0.44122,4.86584 3.3157,10.82857 6.99284,14.50571 6.67394,6.67394 18.0556,9.43918 22.12048,5.37429 z m -39.37426,-60.55385 c 4.5791,-1.264541 7.0758,-2.474696 10.65664,-5.165289 3.95425,-2.971166 8.20309,-8.488428 9.81028,-12.738995 1.59745,-4.22477 2.69238,-10.762081 2.22226,-13.26803 -0.72834,-3.882404 -4.61497,-5.992788 -8.60907,-4.674615 -2.80088,0.924377 -3.74589,2.482919 -4.23824,6.98987 -0.50569,4.629129 -2.26801,8.602653 -5.13132,11.569714 -3.07438,3.185778 -5.98734,4.570765 -11.15484,5.303647 -6.71742,0.952699 -7.93086,2.008734 -7.93086,6.902084 0,2.021941 0.3782,3.111663 1.50006,4.322174 1.34042,1.44633 1.94261,1.61782 5.6583,1.61133 2.28703,-0.004 5.53459,-0.38734 7.21679,-0.85189 z"
   id="path1741" /></svg>
